<?xml version="1.0" encoding="utf-8"?>
<!-- Generator: Adobe Illustrator 19.0.0, SVG Export Plug-In . SVG Version: 6.00 Build 0)  -->
<svg version="1.1" id="Layer_1" xmlns="http://www.w3.org/2000/svg" xmlns:xlink="http://www.w3.org/1999/xlink" x="0px" y="0px"
	 viewBox="0 0 90 80" style="enable-background:new 0 0 90 80;" xml:space="preserve">
<style type="text/css">
	.st0{display:none;}
	.st1{display:inline;}
	.st2{clip-path:url(#XMLID_101_);fill:none;stroke:#8B8B8B;stroke-width:1.35;stroke-miterlimit:10;}
	.st3{display:inline;fill:none;stroke:#8B8B8B;stroke-width:1.35;stroke-miterlimit:10;}
	.st4{display:inline;fill:#8B8B8B;}
	.st5{clip-path:url(#XMLID_102_);fill:none;stroke:#8B8B8B;stroke-width:1.35;stroke-miterlimit:10;}
	.st6{clip-path:url(#XMLID_102_);fill:#8B8B8B;}
	.st7{clip-path:url(#XMLID_103_);fill:none;stroke:#8B8B8B;stroke-width:1.35;stroke-miterlimit:10;}
	.st8{clip-path:url(#XMLID_103_);fill:none;stroke:#8B8B8B;stroke-width:0.9;stroke-miterlimit:10;}
	.st9{fill:none;stroke:#8B8B8B;stroke-width:0.9;stroke-miterlimit:10;}
	.st10{clip-path:url(#XMLID_104_);fill:#8B8B8B;}
	.st11{clip-path:url(#XMLID_104_);fill:none;stroke:#8B8B8B;stroke-width:1.35;stroke-miterlimit:10;stroke-dasharray:3.6,2.7;}
	.st12{clip-path:url(#XMLID_104_);fill:none;stroke:#8B8B8B;stroke-width:1.35;stroke-miterlimit:10;}
</style>
<g id="XMLID_53_" class="st0">
	<g class="st1">
		<defs>
			<rect id="XMLID_77_" x="5.5" y="2.6" width="78.9" height="74.8"/>
		</defs>
		<clipPath id="XMLID_101_">
			<use xlink:href="#XMLID_77_"  style="overflow:visible;"/>
		</clipPath>
		<rect id="XMLID_78_" x="19.6" y="3.3" class="st2" width="24.9" height="19.6"/>
	</g>
	<rect id="XMLID_76_" x="24.1" y="6.8" class="st3" width="16.1" height="12.6"/>
	<rect id="XMLID_75_" x="26.8" y="9.5" class="st4" width="11.2" height="1.6"/>
	<rect id="XMLID_74_" x="28.1" y="13.1" class="st4" width="2.9" height="2.9"/>
	<rect id="XMLID_73_" x="33.1" y="13.1" class="st4" width="2.9" height="2.9"/>
	<rect id="XMLID_72_" x="65.7" y="65.9" class="st4" width="1.5" height="6.3"/>
	<rect id="XMLID_71_" x="79.2" y="65.9" class="st4" width="1.5" height="6.3"/>
	<g class="st1">
		<defs>
			<rect id="XMLID_54_" x="5.5" y="2.6" width="78.9" height="74.8"/>
		</defs>
		<clipPath id="XMLID_102_">
			<use xlink:href="#XMLID_54_"  style="overflow:visible;"/>
		</clipPath>
		<rect id="XMLID_70_" x="62.5" y="53.3" class="st5" width="21.3" height="5.8"/>
		<rect id="XMLID_69_" x="62.5" y="59.1" class="st5" width="21.3" height="6.8"/>
		
			<ellipse id="XMLID_68_" transform="matrix(0.9999 1.116607e-02 -1.116607e-02 0.9999 0.3808 -0.8157)" class="st5" cx="73.2" cy="33.7" rx="3.9" ry="1.1"/>
		<path id="XMLID_67_" class="st5" d="M70.3,34.3l-2.8,5.3c0,0,4.8,3.5,10.7,0.4l-2.5-5.3l-1.1,0.5c0,0,0,0-0.1,0l-3-0.2
			c-0.2,0-0.4-0.1-0.6-0.2L70.3,34.3z"/>
		<ellipse id="XMLID_66_" class="st5" cx="73.5" cy="50.6" rx="3.4" ry="1.7"/>
		<ellipse id="XMLID_65_" class="st5" cx="73.5" cy="46.6" rx="2.6" ry="1.3"/>
		<ellipse id="XMLID_64_" class="st5" cx="73.5" cy="43.3" rx="2.6" ry="1.3"/>
		<path id="XMLID_63_" class="st6" d="M74.2,56c0,0.6-0.5,1.1-1.1,1.1c-0.6,0-1.1-0.5-1.1-1.1c0-0.6,0.5-1.1,1.1-1.1
			C73.7,54.9,74.2,55.4,74.2,56"/>
		<path id="XMLID_62_" class="st6" d="M74.2,62.7c0,0.6-0.5,1.1-1.1,1.1c-0.6,0-1.1-0.5-1.1-1.1c0-0.6,0.5-1.1,1.1-1.1
			C73.7,61.6,74.2,62.1,74.2,62.7"/>
		<path id="XMLID_61_" class="st5" d="M6.2,70H58V50.1c0-2.2-1.8-4-4-4h-0.3c-2.2,0-4,1.8-4,4v5.6c0,2.2-1.8,4-4,4H18.1
			c-2.2,0-4-1.8-4-4v-5.6c0-2.2-1.8-4-4-4c-2.2,0-4,1.8-4,4V70z"/>
		<polyline id="XMLID_60_" class="st5" points="10.2,46.2 10.2,28.1 53.7,28.1 53.7,45.6 		"/>
		<path id="XMLID_59_" class="st5" d="M46.1,60H18.3c-1.9,0-3.4-1.5-3.4-3.4v-8.8c0-1.9,1.5-3.4,3.4-3.4h27.7c1.9,0,3.4,1.5,3.4,3.4
			v8.8C49.5,58.5,48,60,46.1,60z"/>
		<rect id="XMLID_58_" x="15.6" y="70" class="st5" width="6.7" height="6.7"/>
		<rect id="XMLID_57_" x="41.9" y="70" class="st5" width="6.7" height="6.7"/>
		<line id="XMLID_56_" class="st5" x1="6.2" y1="65.5" x2="58" y2="65.5"/>
		<line id="XMLID_55_" class="st5" x1="10.2" y1="33.5" x2="53.7" y2="33.5"/>
	</g>
</g>
<g id="XMLID_99_">
	<g id="XMLID_118_">
		<defs>
			<rect id="XMLID_95_" x="7.1" y="2.4" width="75.8" height="75.3"/>
		</defs>
		<clipPath id="XMLID_103_">
			<use xlink:href="#XMLID_95_"  style="overflow:visible;"/>
		</clipPath>
		<rect id="XMLID_97_" x="51.4" y="4.7" class="st7" width="30.8" height="72.3"/>
		<polyline id="XMLID_96_" class="st8" points="61.8,77 61.8,61 71.8,61 71.8,77 		"/>
	</g>
	<rect id="XMLID_94_" x="58" y="10.2" class="st9" width="6.7" height="6.7"/>
	<rect id="XMLID_93_" x="68.8" y="10.2" class="st9" width="6.7" height="6.7"/>
	<line id="XMLID_92_" class="st9" x1="58" y1="20.7" x2="75.5" y2="20.7"/>
	<rect id="XMLID_91_" x="58" y="25.4" class="st9" width="6.7" height="6.7"/>
	<rect id="XMLID_90_" x="68.8" y="25.4" class="st9" width="6.7" height="6.7"/>
	<line id="XMLID_89_" class="st9" x1="58" y1="35.9" x2="75.5" y2="35.9"/>
	<rect id="XMLID_88_" x="58" y="40.5" class="st9" width="6.7" height="6.7"/>
	<rect id="XMLID_87_" x="68.8" y="40.5" class="st9" width="6.7" height="6.7"/>
	<line id="XMLID_86_" class="st9" x1="58" y1="51.1" x2="75.5" y2="51.1"/>
	<g id="XMLID_100_">
		<defs>
			<rect id="XMLID_79_" x="7.1" y="2.4" width="75.8" height="75.3"/>
		</defs>
		<clipPath id="XMLID_104_">
			<use xlink:href="#XMLID_79_"  style="overflow:visible;"/>
		</clipPath>
		<path id="XMLID_105_" class="st10" d="M11.3,74.2c-0.2,0-0.4-0.1-0.5-0.2c-0.1-0.2-0.2-0.4-0.1-0.7l1.3-4.8c0-0.1,0.1-0.2,0.1-0.3
			c0.1-0.8,0.6-1.3,1.1-1.9l0.3-0.3l9.1-9.1l0.2-0.2l-0.1-0.2L9.6,43.4L17,36l13.3,13.3c0,0,1-1,1.3-1.3l9.7-9.7
			c0.8-0.8,1.7-1.2,2.7-1.2c0.9,0,1.8,0.4,2.6,1c1.5,1.3,1.6,3.7,0.4,5.2c-0.5,0.6-1.1,1.1-1.6,1.6c-0.2,0.2-0.4,0.4-0.6,0.6
			c-1.9,1.9-3.7,3.7-5.6,5.6l-4.8,4.8l-6.2,6.2l-5.7,5.6l-1.7,1.7c-0.9,0.9-1.9,1.9-2.8,2.8c-0.1,0.1-0.3,0.3-0.5,0.3
			c-1.9,0.5-3.9,1.1-5.8,1.6C11.5,74.2,11.4,74.2,11.3,74.2 M13.5,67.9l3.5,3.5l28.2-28.2l-3.5-3.5L13.5,67.9z M11.4,43.3l12.4,12.4
			l4.5-4.5l-1.1-1l1-1l-1.6-1.6L25,49.4l-0.9-0.9l1.8-1.8l-1.5-1.6l-1,1l-0.9-0.9l1-0.9l-1.5-1.6l-1.8,1.8l-0.9-0.9l1.8-1.8
			l-1.6-1.6l-0.9,1l-0.9-1l1-0.9L17,37.8L11.4,43.3z"/>
		<polygon id="XMLID_82_" class="st10" points="29.2,63 30.1,62.1 41.5,73.5 47.1,67.9 46.3,67.2 45.4,68.2 44.4,67.2 45.5,66.3 
			43.9,64.7 42.1,66.6 41.2,65.7 43,63.9 41.4,62.3 40.5,63.3 39.5,62.3 40.6,61.4 39,59.9 37.2,61.6 36.3,60.7 38.2,58.9 
			36.5,57.4 35.6,58.4 34.7,57.5 36.6,55.6 48.9,68 41.6,75.3 		"/>
		<polygon id="XMLID_81_" class="st11" points="27.4,3.5 8.4,32 47.7,32 		"/>
		<line id="XMLID_80_" class="st12" x1="16" y1="11.5" x2="24.3" y2="11.5"/>
	</g>
</g>
</svg>
