<?xml version="1.0" encoding="utf-8"?>
<!-- Generator: Adobe Illustrator 19.0.0, SVG Export Plug-In . SVG Version: 6.00 Build 0)  -->
<svg version="1.1" id="Layer_1" xmlns="http://www.w3.org/2000/svg" xmlns:xlink="http://www.w3.org/1999/xlink" x="0px" y="0px"
	 viewBox="0 0 90 80" style="enable-background:new 0 0 90 80;" xml:space="preserve">
<style type="text/css">
	.st0{display:none;}
	.st1{display:inline;}
	.st2{clip-path:url(#XMLID_80_);fill:none;stroke:#8B8B8B;stroke-width:1.35;stroke-miterlimit:10;}
	.st3{display:inline;fill:none;stroke:#8B8B8B;stroke-width:1.35;stroke-miterlimit:10;}
	.st4{display:inline;fill:#8B8B8B;}
	.st5{clip-path:url(#XMLID_81_);fill:none;stroke:#8B8B8B;stroke-width:1.35;stroke-miterlimit:10;}
	.st6{clip-path:url(#XMLID_81_);fill:#8B8B8B;}
	.st7{clip-path:url(#XMLID_82_);fill:none;stroke:#8B8B8B;stroke-width:1.35;stroke-miterlimit:10;}
</style>
<g id="XMLID_53_" class="st0">
	<g class="st1">
		<defs>
			<rect id="XMLID_77_" x="5.5" y="2.6" width="78.9" height="74.8"/>
		</defs>
		<clipPath id="XMLID_80_">
			<use xlink:href="#XMLID_77_"  style="overflow:visible;"/>
		</clipPath>
		<rect id="XMLID_78_" x="19.6" y="3.3" class="st2" width="24.9" height="19.6"/>
	</g>
	<rect id="XMLID_76_" x="24.1" y="6.8" class="st3" width="16.1" height="12.6"/>
	<rect id="XMLID_75_" x="26.8" y="9.5" class="st4" width="11.2" height="1.6"/>
	<rect id="XMLID_74_" x="28.1" y="13.1" class="st4" width="2.9" height="2.9"/>
	<rect id="XMLID_73_" x="33.1" y="13.1" class="st4" width="2.9" height="2.9"/>
	<rect id="XMLID_72_" x="65.7" y="65.9" class="st4" width="1.5" height="6.3"/>
	<rect id="XMLID_71_" x="79.2" y="65.9" class="st4" width="1.5" height="6.3"/>
	<g class="st1">
		<defs>
			<rect id="XMLID_54_" x="5.5" y="2.6" width="78.9" height="74.8"/>
		</defs>
		<clipPath id="XMLID_81_">
			<use xlink:href="#XMLID_54_"  style="overflow:visible;"/>
		</clipPath>
		<rect id="XMLID_70_" x="62.5" y="53.3" class="st5" width="21.3" height="5.8"/>
		<rect id="XMLID_69_" x="62.5" y="59.1" class="st5" width="21.3" height="6.8"/>
		
			<ellipse id="XMLID_68_" transform="matrix(0.9999 1.116607e-02 -1.116607e-02 0.9999 0.3808 -0.8157)" class="st5" cx="73.2" cy="33.7" rx="3.9" ry="1.1"/>
		<path id="XMLID_67_" class="st5" d="M70.3,34.3l-2.8,5.3c0,0,4.8,3.5,10.7,0.4l-2.5-5.3l-1.1,0.5c0,0,0,0-0.1,0l-3-0.2
			c-0.2,0-0.4-0.1-0.6-0.2L70.3,34.3z"/>
		<ellipse id="XMLID_66_" class="st5" cx="73.5" cy="50.6" rx="3.4" ry="1.7"/>
		<ellipse id="XMLID_65_" class="st5" cx="73.5" cy="46.6" rx="2.6" ry="1.3"/>
		<ellipse id="XMLID_64_" class="st5" cx="73.5" cy="43.3" rx="2.6" ry="1.3"/>
		<path id="XMLID_63_" class="st6" d="M74.2,56c0,0.6-0.5,1.1-1.1,1.1c-0.6,0-1.1-0.5-1.1-1.1c0-0.6,0.5-1.1,1.1-1.1
			C73.7,54.9,74.2,55.4,74.2,56"/>
		<path id="XMLID_62_" class="st6" d="M74.2,62.7c0,0.6-0.5,1.1-1.1,1.1c-0.6,0-1.1-0.5-1.1-1.1c0-0.6,0.5-1.1,1.1-1.1
			C73.7,61.6,74.2,62.1,74.2,62.7"/>
		<path id="XMLID_61_" class="st5" d="M6.2,70H58V50.1c0-2.2-1.8-4-4-4h-0.3c-2.2,0-4,1.8-4,4v5.6c0,2.2-1.8,4-4,4H18.1
			c-2.2,0-4-1.8-4-4v-5.6c0-2.2-1.8-4-4-4c-2.2,0-4,1.8-4,4V70z"/>
		<polyline id="XMLID_60_" class="st5" points="10.2,46.2 10.2,28.1 53.7,28.1 53.7,45.6 		"/>
		<path id="XMLID_59_" class="st5" d="M46.1,60H18.3c-1.9,0-3.4-1.5-3.4-3.4v-8.8c0-1.9,1.5-3.4,3.4-3.4h27.7c1.9,0,3.4,1.5,3.4,3.4
			v8.8C49.5,58.5,48,60,46.1,60z"/>
		<rect id="XMLID_58_" x="15.6" y="70" class="st5" width="6.7" height="6.7"/>
		<rect id="XMLID_57_" x="41.9" y="70" class="st5" width="6.7" height="6.7"/>
		<line id="XMLID_56_" class="st5" x1="6.2" y1="65.5" x2="58" y2="65.5"/>
		<line id="XMLID_55_" class="st5" x1="10.2" y1="33.5" x2="53.7" y2="33.5"/>
	</g>
</g>
<g id="XMLID_98_">
	<g id="XMLID_122_">
		<defs>
			<rect id="XMLID_101_" x="4.7" y="1.2" width="80.6" height="77.5"/>
		</defs>
		<clipPath id="XMLID_82_">
			<use xlink:href="#XMLID_101_"  style="overflow:visible;"/>
		</clipPath>
		<path id="XMLID_119_" class="st7" d="M55.7,14.1c0,0-5.6,4-6.9,7.3c-0.5,1.4-0.9,2.9-1.3,4.3c-0.1,0.4-0.2,0.5-0.6,0.5
			c-0.8,0-1.6,0-2.3,0c-0.3,0-0.4,0.1-0.4,0.4c0,0.6,0,1.1,0,1.7c0,0.4,0.1,0.5,0.5,0.5c3,0,6,0,9,0c7.2,0,14.4,0,21.6,0
			c0.6,0,0.6,0,0.6-0.6c0-0.5,0-1,0-1.4c0-0.4-0.1-0.5-0.5-0.5c-0.8,0-1.6,0-2.4,0c-0.2,0-0.4-0.1-0.4-0.3c-0.3-3.1-1.7-5.7-3.6-8.1
			c-1.3-1.7-4.6-3.7-4.6-3.7s0.1,8.1,0,8.6c-0.1,0.4-0.3,0.7-0.7,0.8c-0.7,0.2-1.4-0.1-1.4-0.8c0-2,0-4,0-6.1c0-1,0-1.9,0-2.9
			c0-0.4-0.1-0.5-0.5-0.5c-1,0-2-0.1-3-0.1c-0.9,0-1.2,0.4-1.2,1.3c0,2.9,0,5.8,0,8.7c0,0.2-0.5,0.4-0.9,0.4c-0.5,0-0.7-0.1-1-0.4
			c-0.2-0.2-0.2-0.5-0.2-0.8C55.8,19.5,55.7,14.1,55.7,14.1z"/>
		<path id="XMLID_117_" class="st7" d="M60.4,32.1h-9.1c-0.9,0-1.2,0.3-1.2,1.2c0,1.3,0.4,2.4,0.9,3.6c1.2,2.7,3,4.8,5.9,5.8
			c3.4,1.3,8.5,0.4,11.3-3.8c1.3-2,2-4.1,1.9-6.5c0-0.4-0.2-0.3-0.5-0.3c-2.3,0-4.6,0-6.9,0H60.4z"/>
		<path id="XMLID_116_" class="st7" d="M35.1,56.1c0.7-3.5,2.6-6.7,5.3-9c3.3-2.7,5.4-3,9.5-3.1c0.9,0,1.6,0.5,2,1.3
			c1.7,3.9,8.1,16.1,8.1,16.1s7.1-13.9,8.1-16.3c0.3-0.6,0.7-1,1.4-1c3.8,0,5.7,0.4,9.3,1.9c2.8,1.2,5.4,3.4,5.7,6.7
			c0.3,2.9,0.2,18.8,0.2,18.8l-11,6.6l-27.3,0l-11.4-7.6C34.9,70.5,34.9,57,35.1,56.1z"/>
		<polyline id="XMLID_115_" class="st7" points="53.4,49.7 60.1,43.7 65.7,49.3 		"/>
		<line id="XMLID_114_" class="st7" x1="66.8" y1="58.4" x2="74.5" y2="58.4"/>
		<line id="XMLID_113_" class="st7" x1="40.4" y1="47.1" x2="40.4" y2="74.1"/>
		<line id="XMLID_112_" class="st7" x1="78.5" y1="46.1" x2="78.5" y2="75.1"/>
		<path id="XMLID_111_" class="st7" d="M21.6,2.6c0,0-3.8,2.7-4.7,5c-0.4,0.9-0.6,1.9-0.9,2.9c-0.1,0.2-0.2,0.4-0.4,0.3
			c-0.5,0-1.1,0-1.6,0c-0.2,0-0.3,0.1-0.3,0.3c0,0.4,0,0.8,0,1.2c0,0.3,0.1,0.3,0.3,0.3c2,0,4.1,0,6.1,0c4.9,0,9.8,0,14.7,0
			c0.4,0,0.4,0,0.4-0.4c0-0.3,0-0.7,0-1c0-0.2-0.1-0.3-0.3-0.3c-0.5,0-1.1,0-1.6,0c-0.2,0-0.3,0-0.3-0.2C33,8.4,32,6.6,30.7,5
			c-0.9-1.2-3.2-2.5-3.2-2.5s0.1,5.5,0,5.9c0,0.3-0.2,0.5-0.5,0.6c-0.5,0.1-0.9-0.1-0.9-0.5c0-1.4,0-2.7,0-4.1c0-0.7,0-1.3,0-2
			c0-0.2-0.1-0.3-0.3-0.3c-0.7,0-1.3,0-2,0c-0.6,0-0.8,0.3-0.8,0.9c0,2,0,3.9,0,5.9C23,8.8,22.7,9,22.4,9c-0.3,0-0.5-0.1-0.7-0.3
			c-0.1-0.1-0.1-0.3-0.1-0.5C21.6,6.2,21.6,2.6,21.6,2.6z"/>
		<path id="XMLID_110_" class="st7" d="M24.8,14.8h-6.2c-0.6,0-0.8,0.2-0.8,0.8c0,0.9,0.3,1.7,0.6,2.4c0.8,1.9,2.1,3.3,4,4
			c2.3,0.9,5.8,0.3,7.7-2.6c0.9-1.3,1.4-2.8,1.3-4.4c0-0.3-0.2-0.2-0.3-0.2c-1.6,0-3.1,0-4.7,0H24.8z"/>
		<path id="XMLID_109_" class="st7" d="M7.6,31.1c0.5-2.3,1.7-4.6,3.6-6.1c2.2-1.8,3.7-2.1,6.5-2.1c0.6,0,1.1,0.3,1.4,0.9
			c1.2,2.7,5.5,11,5.5,11s4.8-9.5,5.5-11.1c0.2-0.4,0.5-0.7,0.9-0.7c2.6,0,3.9,0.2,6.3,1.3c1.9,0.8,3.7,2.3,3.9,4.6
			c0.2,2,0.1,12.8,0.1,12.8l-7.5,4.5l-18.6,0l-7.8-5.2C7.4,40.9,7.4,31.8,7.6,31.1z"/>
		<polyline id="XMLID_108_" class="st7" points="20,26.8 24.6,22.7 28.4,26.5 		"/>
		<line id="XMLID_107_" class="st7" x1="29.1" y1="32.7" x2="34.4" y2="32.7"/>
		<line id="XMLID_106_" class="st7" x1="11.2" y1="25" x2="11.2" y2="43.4"/>
		<line id="XMLID_104_" class="st7" x1="37.1" y1="24.3" x2="37.1" y2="44.1"/>
		<path id="XMLID_103_" class="st7" d="M28.7,76c-1-0.3-1.6-1.1-2.3-1.7c-2.6-2.6-5.1-5.1-7.6-7.7c-0.1-0.1-0.1-0.1-0.2-0.2
			c-1.2,1.2-2.3,2.3-3.5,3.4c-0.1,0.1-0.2,0.2-0.3,0.3c-1,0.8-1.5,1.7-1.8,2.9c-0.1,0.3-0.3,0.6-0.6,0.8c-1,0.7-2,1.2-3,1.9
			c-0.3,0.2-0.5,0.2-0.8-0.1c-0.4-0.4-0.7-0.8-1.2-1.2c0.8-1.3,1.5-2.5,2.3-3.8c0.1-0.1,0.3-0.2,0.5-0.3c1.2-0.2,2.2-0.9,3-1.8
			c1-1.1,2.1-2.1,3.1-3.1c0.2-0.2,0.5-0.3,0.7-0.5c0-0.1,0-0.2-0.1-0.3c-0.9-0.9-1.8-1.7-2.7-2.6c-0.1-0.1-0.5-0.1-0.7-0.1
			c-2.8,0.7-5.5-0.2-7.1-2.6c-1.2-1.8-1.5-3.8-0.8-5.9c1,1,1.9,1.9,2.9,2.9c0.2,0.2,0.4,0.4,0.6,0.6c0.5,0.8,1.2,0.8,2,0.7
			c0.2,0,0.4-0.1,0.5-0.3c0.6-0.6,1.2-1.2,1.8-1.8c0.4-0.4,0.4-1.7,0-2.1c-1.3-1.2-2.5-2.5-3.9-3.8c0.6-0.2,1.1-0.3,1.6-0.4h1.4
			c0.1,0,0.1,0.1,0.2,0.1c2.9,0.2,6.2,3.2,5.5,7.3c-0.2,1.4,0.3,2.1,1.1,2.9c3.9,3.9,7.8,7.8,11.7,11.8c0.9,0.9,1.1,1.9,0.7,3
			c-0.3,0.9-1.1,1.4-1.9,1.7H28.7z"/>
		<path id="XMLID_102_" class="st7" d="M25.5,62.4c-1.5-1.5-3-3-4.7-4.6c1.3-1.2,2.5-2.4,3.8-3.6c1.1-1.1,2.2-2.2,3.3-3.3
			c1.4-1.4,3.3-1.5,4.7-0.2c1.3,1.3,1.3,3.3,0,4.7c-2.3,2.3-4.6,4.6-6.9,6.9C25.5,62.3,25.5,62.4,25.5,62.4z"/>
	</g>
</g>
</svg>
