<svg xmlns="http://www.w3.org/2000/svg" width="25.203" height="25.203" viewBox="0 0 25.203 25.203">
  <defs>
    <style>
      .cls-1 {
        fill: none;
        stroke-linejoin: round;
      }

      .cls-2, .cls-3, .cls-4 {
        stroke: none;
      }

      .cls-3 {
        fill: #60c1c3;
      }

      .cls-4 {
        fill: #ff8508;
      }
    </style>
  </defs>
  <g id="Group_1165" data-name="Group 1165" transform="translate(-117.185 -720.458)">
    <g id="Path_29" data-name="Path 29" class="cls-1" transform="translate(-51 715)">
      <path class="cls-2" d="M186.555,5.458a1.908,1.908,0,0,1,1.468,2.2c0,1.007,0,2.014,0,3.066h-1.579V7.794c0-.761,0-.761-.758-.761-5.077,0-10.154.006-15.231-.011-.524,0-.707.125-.706.683q.027,10.358,0,20.719c0,.5.119.675.652.673q7.7-.029,15.4,0c.522,0,.673-.149.651-.663-.04-.926-.011-1.855-.011-2.809h1.53c0,1.226.067,2.453-.024,3.668-.058.759-.7,1.142-1.393,1.368H169.64a2.1,2.1,0,0,1-1.455-1.455V6.913a2.114,2.114,0,0,1,1.455-1.455Z"/>
      <path class="cls-3" d="M 169.6404418945312 5.457996368408203 L 186.5554351806641 5.457996368408203 C 187.7399749755859 5.952465057373047 188.0218200683594 6.375246047973633 188.0230407714844 7.660606384277344 C 188.0242462158203 8.667755126953125 188.0230407714844 9.674905776977539 188.0230407714844 10.72700500488281 L 186.4436798095703 10.72700500488281 C 186.4436798095703 9.757514953613281 186.4436798095703 8.775875091552734 186.4436798095703 7.794244766235352 C 186.4424591064453 7.033716201782227 186.4424591064453 7.033716201782227 185.6855773925781 7.033716201782227 C 183.5694122314453 7.033716201782227 181.4523773193359 7.034772872924805 179.3362121582031 7.034772872924805 C 176.3753204345703 7.034772872924805 173.4153137207031 7.032705307006836 170.4544219970703 7.022785186767578 C 170.4519500732422 7.02277946472168 170.4494171142578 7.022777557373047 170.4469757080078 7.022777557373047 C 169.9289855957031 7.022777557373047 169.7473602294922 7.150535583496094 169.7485809326172 7.705554962158203 C 169.7667999267578 14.61102485656738 169.7643737792969 21.5177059173584 169.7510070800781 28.42438507080078 C 169.7498016357422 28.92385482788086 169.8684539794922 29.09746170043945 170.3923950195312 29.09746170043945 C 170.3960571289062 29.09746170043945 170.3997039794922 29.09745216369629 170.4034118652344 29.09743499755859 C 172.9698638916016 29.08771514892578 175.5366363525391 29.08285522460938 178.1034088134766 29.08285522460938 C 180.6701812744141 29.08285522460938 183.2369537353516 29.08771514892578 185.8034210205078 29.09743499755859 C 185.8054962158203 29.09744071960449 185.8076171875 29.09744262695312 185.8096771240234 29.09744262695312 C 186.3270874023438 29.09744262695312 186.4763793945312 28.94596672058105 186.4546203613281 28.43410491943359 C 186.4145202636719 27.50835418701172 186.4436798095703 26.57896423339844 186.4436798095703 25.62526512145996 L 187.9732360839844 25.62526512145996 C 187.9732360839844 26.85109519958496 188.0400390625 28.07814407348633 187.9489288330078 29.29303550720215 C 187.8906097412109 30.05234527587891 187.2491455078125 30.43503570556641 186.5554351806641 30.6610050201416 L 169.6404418945312 30.6610050201416 C 168.8957214355469 30.43503570556641 168.4194946289062 29.94057464599609 168.1849975585938 29.20556640625 L 168.1849975585938 6.913444519042969 C 168.4097595214844 6.167495727539062 168.9115142822266 5.699766159057617 169.6404418945312 5.457996368408203 Z"/>
    </g>
    <g id="Path_30" data-name="Path 30" class="cls-1" transform="translate(-49.063 716.011)">
      <path class="cls-2" d="M191.451,13.857c-2.109,2.77-4.291,5.489-6.3,8.331a8.426,8.426,0,0,1-4.427,3.424c-.813.258-1.565.7-2.369.986a1.126,1.126,0,0,1-.906-.069.965.965,0,0,1-.236-.821c.36-1.692.761-3.376,1.18-5.054a2.085,2.085,0,0,1,.454-.754c2.478-3.029,4.977-6.04,7.439-9.085a1.648,1.648,0,0,1,1.617-.634,3.887,3.887,0,0,1,3.456,3.034,1.184,1.184,0,0,0,.091.2Zm-8.4,8.406c.1-.113.156-.177.208-.247q2.054-2.69,4.108-5.378c.584-.762.566-1.174-.186-1.8a4.5,4.5,0,0,0-1.022-.539.717.717,0,0,0-.957.3c-.733.94-1.5,1.856-2.255,2.78-.773.944-1.549,1.887-2.368,2.882A3.712,3.712,0,0,1,183.052,22.263Zm-1.347,1.215a1.752,1.752,0,0,0-1.991-1.66l-.674,2.821Zm5.126-10.819,2.239,1.736c.112-.368.835-.559.607-1.183a2.1,2.1,0,0,0-1.842-1.414C187.17,11.726,187.153,12.466,186.831,12.659Z"/>
      <path class="cls-3" d="M 185.8651733398438 12.91921806335449 C 185.7814331054688 13.02202796936035 185.6977081298828 13.12475967407227 185.6138916015625 13.22754096984863 C 185.6826477050781 13.21865272521973 185.7525939941406 13.21419525146484 185.8236541748047 13.21419525146484 C 185.8842468261719 13.21420097351074 185.945068359375 13.2176513671875 186.0060882568359 13.22453880310059 C 185.9422302246094 13.13144683837891 185.8945617675781 13.02815246582031 185.8651733398438 12.91921806335449 M 188.72900390625 15.33503150939941 C 188.7591705322266 15.45154571533203 188.7760162353516 15.56934547424316 188.7795867919922 15.68884658813477 C 188.7800445556641 15.68826103210449 188.7804107666016 15.68779182434082 188.7808685302734 15.68720626831055 C 188.8564147949219 15.58950614929199 188.9322662353516 15.49143028259277 189.0083770751953 15.39298439025879 C 188.9130706787109 15.38711547851562 188.8189392089844 15.36762428283691 188.72900390625 15.33503150939941 M 179.6198425292969 20.53365898132324 C 179.5663757324219 20.59866142272949 179.41064453125 20.78803253173828 179.3698272705078 20.87882614135742 C 179.4633636474609 20.84455108642578 179.5631103515625 20.82390213012695 179.6665344238281 20.81900596618652 C 179.6951904296875 20.81764793395996 179.7239532470703 20.81661605834961 179.7526092529297 20.81591606140137 C 179.6990661621094 20.73703575134277 179.6564178466797 20.64992904663086 179.6268463134766 20.55667686462402 C 179.6244201660156 20.54902458190918 179.6220855712891 20.54134178161621 179.6198425292969 20.53365898132324 M 187.6104888916016 10.16119766235352 C 187.705322265625 10.16119766235352 187.8028259277344 10.16741561889648 187.9034271240234 10.17918586730957 C 189.6613922119141 10.38206672668457 190.9175872802734 11.49248695373535 191.3598022460938 13.21277618408203 C 191.3768157958984 13.28081703186035 191.4205474853516 13.34276580810547 191.4509124755859 13.40837669372559 L 191.4509124755859 13.85666656494141 C 189.3418731689453 16.62663650512695 187.159912109375 19.34556579589844 185.1516876220703 22.18720626831055 C 183.996337890625 23.82245635986328 182.6307830810547 25.00698471069336 180.724609375 25.61078643798828 C 179.9118499755859 25.86834716796875 179.1598358154297 26.30934524536133 178.3555755615234 26.59728622436523 C 178.2422790527344 26.63792610168457 178.1026000976562 26.65945434570312 177.9628295898438 26.65945434570312 C 177.7683563232422 26.65945434570312 177.5736694335938 26.6178092956543 177.4492492675781 26.52803611755371 C 177.2633819580078 26.39439582824707 177.1588897705078 25.96431732177734 177.2135620117188 25.70676612854004 C 177.5731811523438 24.0144157409668 177.9740905761719 22.33056640625 178.3932342529297 20.65279579162598 C 178.4612731933594 20.37944602966309 178.6617279052734 20.12431526184082 178.8475952148438 19.89834594726562 C 181.3259735107422 16.86961555480957 183.8250274658203 13.85788536071777 186.2864074707031 10.81335639953613 C 186.667724609375 10.34285545349121 187.0984649658203 10.16119766235352 187.6104888916016 10.16119766235352 Z M 189.0697326660156 14.39486694335938 C 189.1815032958984 14.02675628662109 189.9043579101562 13.83601570129395 189.6771850585938 13.21155548095703 C 189.3734588623047 12.37692642211914 188.7137756347656 11.89339637756348 187.8353881835938 11.79742622375488 C 187.8048400878906 11.79413604736328 187.7755889892578 11.79255485534668 187.7476806640625 11.79255294799805 C 187.1673889160156 11.79251289367676 187.1378479003906 12.4744815826416 186.8306732177734 12.65878677368164 L 189.0697326660156 14.39486694335938 Z M 183.0523529052734 22.26253509521484 C 183.1483154296875 22.14954566955566 183.2078704833984 22.08515548706055 183.2601013183594 22.01590728759766 C 184.6292877197266 20.22272682189941 185.9972534179688 18.42953681945801 187.3676605224609 16.63756561279297 C 187.9520263671875 15.87582588195801 187.9338073730469 15.46397590637207 187.1817779541016 14.83587646484375 C 186.8926239013672 14.5941162109375 186.5099487304688 14.45804595947266 186.1600494384766 14.29646682739258 C 186.03857421875 14.2407398223877 185.9272613525391 14.21420860290527 185.8235626220703 14.21419906616211 C 185.5881195068359 14.21417808532715 185.3916473388672 14.35084533691406 185.2027282714844 14.5928955078125 C 184.4701385498047 15.53322601318359 183.7035369873047 16.44925689697266 182.9478759765625 17.3725757598877 C 182.1752014160156 18.31655693054199 181.3988952636719 19.25931549072266 180.5800323486328 20.25430679321289 C 181.7354125976562 20.57139587402344 182.5299530029297 21.22622680664062 183.0523529052734 22.26253509521484 Z M 179.0395660400391 24.63886642456055 L 181.7050476074219 23.47742652893066 C 181.6209259033203 22.45182800292969 180.9021911621094 21.81483459472656 179.8426971435547 21.8148078918457 C 179.8002624511719 21.81480598449707 179.7573394775391 21.81582641601562 179.7138214111328 21.81788635253906 L 179.0395660400391 24.63886642456055 Z"/>
    </g>
    <g id="Path_31" data-name="Path 31" class="cls-1" transform="translate(-50.081 715.947)">
      <path class="cls-2" d="M177.04,9.868c1.211,0,2.423,0,3.634,0,.569,0,.912.284.935.74a.815.815,0,0,1-.914.835q-3.661.018-7.322,0a.829.829,0,0,1-.912-.847c.023-.452.364-.724.945-.727C174.618,9.863,175.829,9.868,177.04,9.868Z"/>
      <path class="cls-4" d="M 174.8032836914062 9.866488456726074 C 175.5489196777344 9.866488456726074 176.2944946289062 9.868330001831055 177.0401306152344 9.868330001831055 C 177.7857208251953 9.868330001831055 178.5314331054688 9.866488456726074 179.2770080566406 9.866488456726074 C 179.7426910400391 9.866488456726074 180.2082214355469 9.867206573486328 180.6738891601562 9.869540214538574 C 181.2424621582031 9.873189926147461 181.5862731933594 10.15383052825928 181.609375 10.60941028594971 C 181.6324462890625 11.08322048187256 181.2764892578125 11.44161987304688 180.6957702636719 11.44404029846191 C 179.5044555664062 11.44997024536133 178.3128662109375 11.45300674438477 177.1215515136719 11.45300674438477 C 175.8721313476562 11.45300674438477 174.6230010986328 11.44966888427734 173.3735961914062 11.44283008575439 C 172.8038024902344 11.44040012359619 172.4368896484375 11.06620979309082 172.4612121582031 10.59605026245117 C 172.4842834472656 10.14410972595215 172.82568359375 9.871970176696777 173.4064025878906 9.869540214538574 C 173.8720092773438 9.867206573486328 174.3376770019531 9.866488456726074 174.8032836914062 9.866488456726074 Z"/>
    </g>
    <g id="Path_32" data-name="Path 32" class="cls-1" transform="translate(-50.081 716.675)">
      <path class="cls-2" d="M177.017,14.806c-1.193,0-2.386,0-3.578,0-.615,0-.965-.283-.979-.752-.017-.5.343-.795.989-.8q3.579-.005,7.156,0c.665,0,1,.272,1.006.779s-.337.764-1.016.769C179.4,14.812,178.209,14.806,177.017,14.806Z"/>
      <path class="cls-4" d="M 179.1211853027344 14.8077917098999 C 178.4195709228516 14.8077917098999 177.7182006835938 14.80569171905518 177.0171813964844 14.80569171905518 C 176.3354797363281 14.80569171905518 175.6537017822266 14.80727863311768 174.9722137451172 14.80727863311768 C 174.4610595703125 14.80727958679199 173.9501037597656 14.80638694763184 173.4393157958984 14.80326175689697 C 172.8245697021484 14.79961204528809 172.4746856689453 14.52019214630127 172.4601135253906 14.05124187469482 C 172.4430999755859 13.55556201934814 172.8027038574219 13.2567024230957 173.4490356445312 13.2554817199707 C 174.6420593261719 13.253662109375 175.8347930908203 13.25275230407715 177.0273590087891 13.25275230407715 C 178.2199249267578 13.25275230407715 179.412353515625 13.253662109375 180.6047668457031 13.2554817199707 C 181.2693176269531 13.2554817199707 181.6094818115234 13.52762222290039 181.6107025146484 14.0342321395874 C 181.6119079589844 14.53234195709229 181.274169921875 14.79840183258057 180.5950469970703 14.80326175689697 C 180.1037445068359 14.8067626953125 179.6123962402344 14.8077917098999 179.1211853027344 14.8077917098999 Z"/>
    </g>
    <g id="Path_33" data-name="Path 33" class="cls-1" transform="translate(-50.082 717.43)">
      <path class="cls-2" d="M174.995,18.312c-.56,0-1.12.012-1.679,0a.792.792,0,0,1-.858-.767.782.782,0,0,1,.852-.767c1.119-.012,2.238-.015,3.357,0a.768.768,0,1,1,.007,1.533C176.115,18.319,175.555,18.312,174.995,18.312Z"/>
      <path class="cls-4" d="M 173.9802856445312 18.31562614440918 C 173.7586059570312 18.31562614440918 173.5370941162109 18.31365585327148 173.3157348632812 18.30692291259766 C 172.7969665527344 18.29234313964844 172.4616546630859 17.97646331787109 172.4580078125 17.54032325744629 C 172.4543762207031 17.10782241821289 172.7945404052734 16.77979278564453 173.3096466064453 16.77372169494629 C 173.8691101074219 16.76764678955078 174.4285736083984 16.76400184631348 174.988037109375 16.76400184631348 C 175.5475006103516 16.76400184631348 176.1069488525391 16.76764678955078 176.6664123535156 16.77615165710449 C 177.2046203613281 16.78344345092773 177.4949798583984 17.08473205566406 177.4743194580078 17.56704330444336 C 177.4524536132812 18.07001304626465 177.1523742675781 18.29963302612305 176.6736907958984 18.3093433380127 C 176.4500427246094 18.31323623657227 176.2261199951172 18.31440544128418 176.0021514892578 18.31440544128418 C 175.66650390625 18.31440544128418 175.3306427001953 18.31178283691406 174.9947204589844 18.31178283691406 C 174.9695587158203 18.31172752380371 174.9443511962891 18.31170272827148 174.919189453125 18.31170272827148 C 174.6061401367188 18.31170272827148 174.2930908203125 18.31562614440918 173.9802856445312 18.31562614440918 Z"/>
    </g>
  </g>
</svg>
