<?xml version="1.0" encoding="utf-8"?>
<!-- Generator: Adobe Illustrator 19.0.0, SVG Export Plug-In . SVG Version: 6.00 Build 0)  -->
<svg version="1.1" id="Layer_1" xmlns="http://www.w3.org/2000/svg" xmlns:xlink="http://www.w3.org/1999/xlink" x="0px" y="0px"
	 viewBox="0 0 50 50" style="enable-background:new 0 0 50 50;" xml:space="preserve">
<style type="text/css">
	.st0{fill:none;stroke:#8B8B8B;stroke-miterlimit:10;}
	.st1{fill:#8B8B8B;}
</style>
<g>
	<rect x="4.1" y="7.9" class="st0" width="14.3" height="36.4"/>
	<g>
		<rect x="7.7" y="24.2" class="st0" width="7.2" height="5.6"/>
		<rect x="7.7" y="34.6" class="st0" width="7.2" height="5.6"/>
	</g>
	<g>
		<rect x="7.7" y="14" class="st0" width="7.2" height="5.6"/>
		<rect x="7.7" y="24.4" class="st0" width="7.2" height="5.6"/>
	</g>
	<g>
		<rect x="22.7" y="34.6" class="st0" width="7.2" height="5.6"/>
	</g>
	<g>
		<rect x="33.5" y="34.6" class="st0" width="7.2" height="5.6"/>
	</g>
	<line class="st0" x1="0.4" y1="44.3" x2="49.6" y2="44.3"/>
	<g>
		<path class="st1" d="M27.5,10.8c0,0,0.1-0.3,0.3-0.6c0.2-0.4,0.6-0.9,1.2-1.4c0.3-0.2,0.6-0.5,1-0.7c0.4-0.2,0.8-0.4,1.3-0.5
			c0.5-0.1,1-0.2,1.4-0.2c0.5,0,1,0.1,1.4,0.1c0.5,0.1,0.9,0.1,1.3,0.1c0.4,0,0.8,0,1.2-0.1c0.8-0.1,1.5-0.3,2.1-0.6
			c0.6-0.3,1-0.6,1.3-0.9c0.3-0.3,0.5-0.4,0.5-0.4S40.6,6,40.4,6.3c-0.3,0.3-0.7,0.7-1.3,1.1c-0.6,0.4-1.3,0.8-2.2,1
			c-0.4,0.1-0.9,0.2-1.4,0.2c-0.5,0-1,0-1.4,0c-0.5,0-0.9-0.1-1.3-0.1c-0.4,0-0.8,0.1-1.2,0.2c-0.4,0.1-0.7,0.2-1.1,0.4
			c-0.3,0.2-0.6,0.3-0.9,0.5c-0.5,0.4-0.9,0.8-1.1,1.1c-0.2,0.3-0.3,0.5-0.3,0.5L27.5,10.8z"/>
	</g>
	<rect x="18.5" y="30" class="st0" width="27.3" height="14.3"/>
	<g>
		<rect x="22.7" y="20.6" class="st0" width="7.2" height="5.6"/>
	</g>
	<g>
		<rect x="33.5" y="20.6" class="st0" width="7.2" height="5.6"/>
	</g>
	<rect x="18.5" y="16" class="st0" width="27.3" height="14.3"/>
</g>
</svg>
