<svg xmlns="http://www.w3.org/2000/svg" width="34" height="30" viewBox="0 0 34 30">
  <defs>
    <style>
      .cls-1 {
        fill: #ff8200;
      }

      .cls-2 {
        fill: #60c1c3;
      }

      .cls-3 {
        fill: none;
        stroke: #ff8200;
        stroke-miterlimit: 10;
        stroke-width: 1.549px;
        stroke-dasharray: 2.736 1.52;
      }
    </style>
  </defs>
  <g id="Vector_Smart_Object3" data-name="Vector Smart Object3" transform="translate(-16.094 -16.85)">
    <g id="Group_12" data-name="Group 12">
      <rect id="Rectangle_11" data-name="Rectangle 11" class="cls-1" width="1.772" height="11.007" transform="translate(27.434 28.669)"/>
      <path id="Path_11" data-name="Path 11" class="cls-1" d="M24.3,30.354s2.946-2.678,4.252-4.017a52.78,52.78,0,0,0,3.65,3.983"/>
    </g>
    <g id="Group_13" data-name="Group 13">
      <rect id="Rectangle_12" data-name="Rectangle 12" class="cls-1" width="1.772" height="11.007" transform="matrix(-1, 0, 0, -1, 36.295, 42.484)"/>
      <path id="Path_12" data-name="Path 12" class="cls-1" d="M39.432,40.8s-2.946,2.678-4.252,4.017a52.574,52.574,0,0,0-3.65-3.983"/>
    </g>
    <path id="Path_13" data-name="Path 13" class="cls-2" d="M49.939,32.494a6.243,6.243,0,0,0-4.466-4.76,13.647,13.647,0,0,0-1.95-.316,18.622,18.622,0,0,0-.041-3.8,7.974,7.974,0,0,0-6.716-6.6,8.087,8.087,0,0,0-8.608,3.693.8.8,0,0,1-.829.457,6.321,6.321,0,0,0-7,6.163.978.978,0,0,1-.46.693,6.576,6.576,0,0,0-3.281,3.392c-.211.5-.333,1.037-.5,1.558v1.662a14.52,14.52,0,0,0,.777,2.175,6.065,6.065,0,0,0,5.579,3.377c1.149.006,2.3,0,3.445.008V38.1c-1.095,0-2.188,0-3.283,0a4.251,4.251,0,0,1-1.41-8.312c.448-.157.9-.318,1.391-.494-.04-.532-.083-1.055-.117-1.577a4.212,4.212,0,0,1,4.891-4.452c1.54.246,1.54.246,2.347-1.093a6.331,6.331,0,0,1,6.739-3.1A6.145,6.145,0,0,1,41.51,24.55a17.064,17.064,0,0,1-.564,3.985c-.059.366-.176.721-.27,1.092a18.03,18.03,0,0,0,2.605-.02A4.259,4.259,0,1,1,43.6,38.1c-1.517,0-3.033,0-4.55,0v2.1q2.3,0,4.606-.007A6.315,6.315,0,0,0,49.975,34.9a1.279,1.279,0,0,1,.118-.266V32.976C50.042,32.815,49.98,32.657,49.939,32.494Z"/>
    <line id="Line_1" data-name="Line 1" class="cls-3" y2="6.447" transform="translate(35.22 22.832)"/>
    <line id="Line_2" data-name="Line 2" class="cls-3" y2="5.983" transform="translate(28.248 40.867)"/>
  </g>
</svg>
