<?xml version="1.0" encoding="utf-8"?>
<!-- Generator: Adobe Illustrator 19.0.0, SVG Export Plug-In . SVG Version: 6.00 Build 0)  -->
<svg version="1.1" id="Layer_1" xmlns="http://www.w3.org/2000/svg" xmlns:xlink="http://www.w3.org/1999/xlink" x="0px" y="0px"
	 viewBox="0 0 50 50" style="enable-background:new 0 0 50 50;" xml:space="preserve">
<style type="text/css">
	.st0{fill:none;stroke:#8B8B8B;stroke-miterlimit:10;}
	.st1{fill:#8B8B8B;}
</style>
<g>
	<g>
		<path class="st0" d="M37.1,48c0-7.2,5.8-12.9,12.9-12.9"/>
		<path class="st0" d="M31,48c0-10.6,8.5-19.1,19.1-19.1"/>
		<path class="st0" d="M26.1,47.6c0-13.2,10.7-23.9,23.9-23.9"/>
	</g>
	<g>
		<path class="st0" d="M10.6,48C10.6,40.8,6.3,34.6,0,32c-0.3-0.1,0.3,0.1,0,0"/>
		<path class="st0" d="M18.9,48c0-11.9-8-21.9-18.9-24.9c-0.3-0.1,0.3,0.1,0,0"/>
		<path class="st0" d="M26.1,48c0-15.7-11.2-28.8-26.1-31.8c-0.3-0.1,0.3,0.1,0,0"/>
	</g>
	<circle class="st0" cx="26.9" cy="12.7" r="4.9"/>
	<g>
		<g>
			<path class="st1" d="M32.9,17.2l2,1.8c0.3,0.2,0.3,0.7,0,0.9l0,0c-0.2,0.3-0.7,0.3-0.9,0l-2-1.8c-0.3-0.2-0.3-0.7,0-0.9l0,0
				C32.2,17,32.6,16.9,32.9,17.2z"/>
			<path class="st1" d="M19.9,5.5l2,1.8c0.3,0.2,0.3,0.7,0,0.9v0c-0.2,0.3-0.7,0.3-0.9,0l-2-1.8c-0.3-0.2-0.3-0.7,0-0.9l0,0
				C19.2,5.2,19.6,5.2,19.9,5.5z"/>
		</g>
		<g>
			<path class="st1" d="M28,20.1l0.1,2.7c0,0.4-0.3,0.7-0.6,0.7l0,0c-0.4,0-0.7-0.3-0.7-0.6l-0.1-2.7c0-0.4,0.3-0.7,0.6-0.7l0,0
				C27.6,19.4,28,19.7,28,20.1z"/>
			<path class="st1" d="M27.1,2.6l0.1,2.7c0,0.4-0.3,0.7-0.6,0.7h0c-0.4,0-0.7-0.3-0.7-0.6l-0.1-2.7C25.7,2.3,26,2,26.4,2l0,0
				C26.7,1.9,27,2.2,27.1,2.6z"/>
		</g>
		<g>
			<path class="st1" d="M22.5,18.6l-1.8,2c-0.2,0.3-0.7,0.3-0.9,0l0,0c-0.3-0.2-0.3-0.7,0-0.9l1.8-2c0.2-0.3,0.7-0.3,0.9,0l0,0
				C22.7,18,22.7,18.4,22.5,18.6z"/>
			<path class="st1" d="M34.2,5.6l-1.8,2c-0.2,0.3-0.7,0.3-0.9,0l0,0c-0.3-0.2-0.3-0.7,0-0.9l1.8-2c0.2-0.3,0.7-0.3,0.9,0v0
				C34.4,5,34.4,5.4,34.2,5.6z"/>
		</g>
		<g>
			<path class="st1" d="M19.6,13.8l-2.7,0.1c-0.4,0-0.7-0.3-0.7-0.6v0c0-0.4,0.3-0.7,0.6-0.7l2.7-0.1c0.4,0,0.7,0.3,0.7,0.6l0,0
				C20.2,13.4,20,13.7,19.6,13.8z"/>
			<path class="st1" d="M37.1,12.8L34.4,13c-0.4,0-0.7-0.3-0.7-0.6v0c0-0.4,0.3-0.7,0.6-0.7l2.7-0.1c0.4,0,0.7,0.3,0.7,0.6v0
				C37.7,12.5,37.4,12.8,37.1,12.8z"/>
		</g>
	</g>
	<path class="st1" d="M45.4,18.8c0,5.8-0.4,5.8-0.9,5.8s-0.9,0-0.9-5.8c0-3.2,0.4-5.8,0.9-5.8S45.4,15.6,45.4,18.8z"/>
	<path class="st1" d="M41,15.8h6.9c0.2,0,0.4-0.2,0.4-0.4c-0.2-1.8-0.9-8.3-2.9-9.2c-2.3-1-3.6,3-3.8,3.7c-0.2,0.6-0.8,4.1-1,5.4
		C40.5,15.6,40.7,15.8,41,15.8z"/>
</g>
</svg>
