<?xml version="1.0" encoding="utf-8"?>
<!-- Generator: Adobe Illustrator 19.0.0, SVG Export Plug-In . SVG Version: 6.00 Build 0)  -->
<svg version="1.1" id="Layer_1" xmlns="http://www.w3.org/2000/svg" xmlns:xlink="http://www.w3.org/1999/xlink" x="0px" y="0px"
	 viewBox="0 0 50 50" style="enable-background:new 0 0 50 50;" xml:space="preserve">
<style type="text/css">
	.st0{fill:none;stroke:#8B8B8B;stroke-miterlimit:10;}
	.st1{fill:#8B8B8B;stroke:#8B8B8B;stroke-miterlimit:10;}
</style>
<g>
	<polygon class="st0" points="9.5,33.6 7.5,33.6 7.5,36.6 14.7,36.6 14.7,33.6 13,33.6 13,22.3 15.2,22.3 15.2,19 7.5,19 7.5,22.4 
		9.5,22.4 	"/>
	<polygon class="st0" points="23.1,33.6 21.2,33.6 21.2,36.6 28.3,36.6 28.3,33.6 26.6,33.6 26.6,22.3 28.8,22.3 28.8,19 21.2,19 
		21.2,22.4 23.1,22.4 	"/>
	<polygon class="st0" points="36.8,33.6 34.8,33.6 34.8,36.6 42,36.6 42,33.6 40.3,33.6 40.3,22.3 42.5,22.3 42.5,19 34.8,19 
		34.8,22.4 36.8,22.4 	"/>
	<polygon class="st0" points="25.1,3.3 8,12.8 8,14.8 42.1,14.8 42.1,13.2 	"/>
	<g>
		<path class="st0" d="M8,46.7"/>
		<path class="st0" d="M41.8,46.7"/>
	</g>
	<circle class="st1" cx="25" cy="9.8" r="1.7"/>
	<path class="st0" d="M8,40.4v6.3h13.3c0.7-1.5,2-2.7,4.1-2.7c2.1,0,3.5,1.2,4.1,2.7h12.6v-6.3H8z"/>
</g>
</svg>
