<?xml version="1.0" encoding="utf-8"?>
<!-- Generator: Adobe Illustrator 19.0.0, SVG Export Plug-In . SVG Version: 6.00 Build 0)  -->
<svg version="1.1" id="Layer_1" xmlns="http://www.w3.org/2000/svg" xmlns:xlink="http://www.w3.org/1999/xlink" x="0px" y="0px"
	 viewBox="0 0 23 23" style="enable-background:new 0 0 23 23;" xml:space="preserve">
<style type="text/css">
	.st0{fill:#507BBE;}
	.st1{fill:#FFFFFF;}
</style>
<path id="XMLID_97_" class="st0" d="M19,23H4c-2.2,0-4-1.8-4-4L0,4c0-2.2,1.8-4,4-4l15,0c2.2,0,4,1.8,4,4v15C23,21.2,21.2,23,19,23z
	"/>
<g id="XMLID_195_">
	<path id="XMLID_193_" class="st1" d="M15.2,4.1l-1.9,0c-2.2,0-3.6,1.4-3.6,3.7v1.7H7.8c-0.2,0-0.3,0.1-0.3,0.3v2.4
		c0,0.2,0.1,0.3,0.3,0.3h1.9v6.2c0,0.2,0.1,0.3,0.3,0.3h2.5c0.2,0,0.3-0.1,0.3-0.3v-6.2h2.3c0.2,0,0.3-0.1,0.3-0.3l0-2.4
		c0-0.1,0-0.2-0.1-0.2s-0.1-0.1-0.2-0.1h-2.3V8c0-0.7,0.2-1,1.1-1l1.3,0c0.2,0,0.3-0.1,0.3-0.3V4.4C15.5,4.2,15.4,4.1,15.2,4.1z"/>
</g>
</svg>
