<?xml version="1.0" encoding="utf-8"?>
<!-- Generator: Adobe Illustrator 19.0.0, SVG Export Plug-In . SVG Version: 6.00 Build 0)  -->
<svg version="1.1" id="Layer_1" xmlns="http://www.w3.org/2000/svg" xmlns:xlink="http://www.w3.org/1999/xlink" x="0px" y="0px"
	 viewBox="0 0 23 23" style="enable-background:new 0 0 23 23;" xml:space="preserve">
<style type="text/css">
	.st0{fill:#0379BA;}
	.st1{fill:#FFFFFF;}
</style>
<path id="XMLID_119_" class="st0" d="M19,23H4c-2.2,0-4-1.8-4-4L0,4c0-2.2,1.8-4,4-4l15,0c2.2,0,4,1.8,4,4v15C23,21.2,21.2,23,19,23
	z"/>
<g id="XMLID_92_">
	<path id="XMLID_91_" class="st1" d="M17.8,17.8L17.8,17.8L17.8,17.8l0-4.6c0-2.3-0.5-4-3.1-4c-1.3,0-2.1,0.7-2.5,1.4l0,0l0-1.2
		l-2.5,0l0,8.5l2.6,0l0-4.2c0-1.1,0.2-2.2,1.6-2.2c1.3,0,1.4,1.3,1.4,2.2l0,4.1H17.8z"/>
	<path id="XMLID_90_" class="st1" d="M5.4,9.4l2.6,0l0,8.5l-2.6,0L5.4,9.4z"/>
	<path id="XMLID_89_" class="st1" d="M6.7,5.2c-0.8,0-1.5,0.7-1.5,1.5s0.7,1.5,1.5,1.5s1.5-0.7,1.5-1.5C8.2,5.9,7.5,5.2,6.7,5.2z"/>
</g>
</svg>
