<?xml version="1.0" encoding="utf-8"?>
<!-- Generator: Adobe Illustrator 19.0.0, SVG Export Plug-In . SVG Version: 6.00 Build 0)  -->
<svg version="1.1" id="Layer_1" xmlns="http://www.w3.org/2000/svg" xmlns:xlink="http://www.w3.org/1999/xlink" x="0px" y="0px"
	 viewBox="0 0 90 80" style="enable-background:new 0 0 90 80;" xml:space="preserve">
<style type="text/css">
	.st0{fill:#8B8B8B;}
	.st1{clip-path:url(#SVGID_2_);fill:none;stroke:#8B8B8B;stroke-width:1.35;stroke-miterlimit:10;}
	.st2{clip-path:url(#SVGID_2_);fill:#8B8B8B;}
</style>
<polygon class="st0" points="45.3,73.3 43.9,73.2 43.9,43.7 45.3,43.7 "/>
<g>
	<defs>
		<rect id="SVGID_1_" x="10.8" y="0.4" width="69" height="79.4"/>
	</defs>
	<clipPath id="SVGID_2_">
		<use xlink:href="#SVGID_1_"  style="overflow:visible;"/>
	</clipPath>
	<path class="st1" d="M53.5,17c0,0-5,3.5-6.1,6.5c-0.5,1.2-0.8,2.5-1.1,3.8c-0.1,0.3-0.2,0.5-0.6,0.4c-0.7,0-1.4,0-2.1,0
		c-0.3,0-0.4,0.1-0.3,0.3c0,0.5,0,1,0,1.5c0,0.3,0.1,0.4,0.4,0.4c2.7,0,5.3,0,8,0c6.4,0,12.8,0,19.2,0c0.6,0,0.6,0,0.6-0.6
		c0-0.4,0-0.9,0-1.3c0-0.3-0.1-0.4-0.4-0.4c-0.7,0-1.4,0-2.1,0c-0.2,0-0.3,0-0.4-0.3c-0.3-2.8-1.5-5.1-3.2-7.2
		c-1.2-1.5-4.1-3.3-4.1-3.3s0.1,7.2,0,7.7c-0.1,0.3-0.2,0.7-0.6,0.8c-0.6,0.2-1.2-0.1-1.2-0.7c0-1.8,0-3.6,0-5.4c0-0.9,0-1.7,0-2.6
		c0-0.3-0.1-0.4-0.4-0.4c-0.9,0-1.8-0.1-2.6,0c-0.8,0-1.1,0.4-1.1,1.1c0,2.6,0,5.1,0,7.7c0,0.2-0.4,0.4-0.8,0.4
		c-0.4,0-0.7-0.1-0.9-0.4c-0.1-0.2-0.1-0.4-0.1-0.7C53.5,21.8,53.5,17,53.5,17z"/>
	<path class="st1" d="M57.6,33h-8c-0.8,0-1.1,0.3-1,1c0,1.1,0.4,2.2,0.8,3.2c1,2.4,2.7,4.3,5.2,5.2c3,1.1,7.5,0.3,10.1-3.3
		c1.2-1.8,1.8-3.7,1.7-5.8c0-0.3-0.2-0.3-0.4-0.3c-2,0-4.1,0-6.1,0H57.6z"/>
	<path class="st1" d="M35.1,54.3c0.6-3.1,2.3-6,4.7-8c2.9-2.4,4.8-2.7,8.4-2.7c0.8,0,1.5,0.4,1.8,1.1c1.5,3.5,7.2,14.3,7.2,14.3
		s6.3-12.3,7.2-14.4c0.2-0.6,0.6-0.9,1.2-0.9c3.4,0,5.1,0.3,8.2,1.7c2.5,1,4.8,3,5.1,6c0.2,2.6,0.2,16.7,0.2,16.7l-9.8,5.8l-24.2,0
		L35,67.1C35,67.1,35,55.1,35.1,54.3z"/>
	<rect x="68.7" y="43.6" class="st2" width="1.3" height="29.6"/>
	<rect x="16.1" y="12.7" class="st1" width="14" height="62.5"/>
	<rect x="24.4" y="16.4" class="st2" width="5.7" height="1.6"/>
	<rect x="26.9" y="20.2" class="st2" width="3.2" height="1.6"/>
	<rect x="26.9" y="27.8" class="st2" width="3.2" height="1.6"/>
	<rect x="26.9" y="35.4" class="st2" width="3.2" height="1.6"/>
	<rect x="26.9" y="42.9" class="st2" width="3.2" height="1.6"/>
	<rect x="26.9" y="50.5" class="st2" width="3.2" height="1.6"/>
	<rect x="26.9" y="58.1" class="st2" width="3.2" height="1.6"/>
	<rect x="26.9" y="65.6" class="st2" width="3.2" height="1.6"/>
	<rect x="24.4" y="24" class="st2" width="5.7" height="1.6"/>
	<rect x="24.4" y="31.6" class="st2" width="5.7" height="1.6"/>
	<rect x="24.4" y="39.1" class="st2" width="5.7" height="1.6"/>
	<rect x="24.4" y="46.7" class="st2" width="5.7" height="1.6"/>
	<rect x="24.4" y="54.3" class="st2" width="5.7" height="1.6"/>
	<rect x="24.4" y="61.8" class="st2" width="5.7" height="1.6"/>
	<rect x="24.4" y="69.4" class="st2" width="5.7" height="1.6"/>
	<polyline class="st1" points="44,20.7 44,8.8 11.5,8.8 11.5,79.1 44.6,79.1 44.6,76.4 	"/>
	<polyline class="st1" points="19.8,8.3 19.8,1.1 38.9,1.1 38.9,8.8 	"/>
	<rect x="34.8" y="12.7" class="st1" width="5.9" height="9.1"/>
	<rect x="34.8" y="30.3" class="st1" width="5.9" height="9.1"/>
</g>
</svg>
