<svg xmlns="http://www.w3.org/2000/svg" width="15.763" height="16" viewBox="0 0 15.763 16">
  <defs>
    <style>
      .cls-1 {
        fill: none;
        stroke-miterlimit: 10;
      }

      .cls-2, .cls-3 {
        stroke: none;
      }

      .cls-3 {
        fill: #35cae0;
      }
    </style>
  </defs>
  <g id="Group_1" data-name="Group 1" transform="translate(-3.327 -3.536)">
    <g id="Path_47" data-name="Path 47" class="cls-1" transform="translate(0 -0.911)">
      <path class="cls-2" d="M19.09,6.387v14.06H3.327V6.34H5.561a7.6,7.6,0,0,0,.061.934,1.674,1.674,0,0,0,1.8,1.338,1.692,1.692,0,0,0,1.53-1.624c.008-.2,0-.4,0-.607h4.507c0,.1-.005.183,0,.267a4.235,4.235,0,0,0,.075.749,1.679,1.679,0,0,0,3.29-.326c.017-.225,0-.452,0-.684ZM4.473,10.322V19.3H17.946V10.322Z"/>
      <path class="cls-3" d="M 4.326993942260742 7.339996337890625 L 4.326993942260742 9.321676254272461 L 4.472824096679688 9.321676254272461 L 6.032260894775391 9.321676254272461 C 5.322149276733398 8.960622787475586 4.800056457519531 8.294164657592773 4.639524459838867 7.463605880737305 C 4.631471633911133 7.421955108642578 4.62449836730957 7.380764007568359 4.618434906005859 7.339996337890625 L 4.326993942260742 7.339996337890625 M 9.916896820068359 7.381187438964844 C 9.772040367126465 8.228490829467773 9.239713668823242 8.941673278808594 8.508845329284668 9.321676254272461 L 13.92790126800537 9.321676254272461 C 13.27292060852051 8.986942291259766 12.76919364929199 8.391956329345703 12.57344436645508 7.655866622924805 C 12.54834747314453 7.562080383300781 12.53040885925293 7.470037460327148 12.51728343963623 7.381187438964844 L 9.916896820068359 7.381187438964844 M 17.79656600952148 7.387266159057617 C 17.65393257141113 8.222740173339844 17.11249732971191 8.939464569091797 16.38147163391113 9.321676254272461 L 17.94583511352539 9.321676254272461 L 18.09030532836914 9.321676254272461 L 18.09030532836914 7.387266159057617 L 17.79656600952148 7.387266159057617 M 3.326993942260742 6.339996337890625 L 5.560573577880859 6.339996337890625 C 5.581504821777344 6.694486618041992 5.566654205322266 6.990896224975586 5.621343612670898 7.273805618286133 C 5.775968551635742 8.073760986328125 6.474170684814453 8.617359161376953 7.285653114318848 8.617359161376953 C 7.33171272277832 8.617359161376953 7.378103256225586 8.615610122680664 7.424814224243164 8.612056732177734 C 8.25261402130127 8.548585891723633 8.919713973999023 7.843006134033203 8.954824447631836 6.988197326660156 C 8.962924003601074 6.786306381225586 8.956174850463867 6.584426879882812 8.956174850463867 6.381187438964844 L 13.46316432952881 6.381187438964844 C 13.46316432952881 6.479085922241211 13.45775413513184 6.564167022705078 13.46451473236084 6.647895812988281 C 13.48476409912109 6.898397445678711 13.47531414031982 7.157676696777344 13.53945446014404 7.397367477416992 C 13.73546981811523 8.134462356567383 14.40551853179932 8.618331909179688 15.16373062133789 8.618331909179688 C 15.22300624847412 8.618331909179688 15.28275489807129 8.615379333496094 15.34292411804199 8.609355926513672 C 16.12886428833008 8.530357360839844 16.76760482788086 7.875415802001953 16.82905387878418 7.071247100830078 C 16.84593391418457 6.846406936645508 16.83107376098633 6.618856430053711 16.83107376098633 6.387266159057617 L 19.09030532836914 6.387266159057617 L 19.09030532836914 20.44703674316406 L 3.326993942260742 20.44703674316406 C 3.326993942260742 15.74491691589355 3.326993942260742 11.04279613494873 3.326993942260742 6.339996337890625 Z M 17.94583511352539 19.30391693115234 L 17.94583511352539 10.32167625427246 L 4.472824096679688 10.32167625427246 L 4.472824096679688 19.30391693115234 L 17.94583511352539 19.30391693115234 Z"/>
    </g>
    <g id="Path_48" data-name="Path 48" class="cls-1" transform="translate(-5.145)">
      <path class="cls-2" d="M20.5,3.536a1.234,1.234,0,0,1,.9,1.4c-.018.267,0,.536,0,.8a1.111,1.111,0,1,1-2.219-.017c0-.323,0-.647,0-.97a1.12,1.12,0,0,1,.8-1.174c.02-.008.033-.03.05-.045Z"/>
      <path class="cls-3" d="M 20.2852840423584 4.535996913909912 C 20.22849082946777 4.563610553741455 20.19867706298828 4.584163665771484 20.18539619445801 4.594509601593018 C 20.18013572692871 4.614729404449463 20.17052268981934 4.664598941802979 20.16999053955078 4.760326862335205 C 20.16818046569824 5.049686908721924 20.16653060913086 5.385806560516357 20.16995048522949 5.712996482849121 C 20.17201614379883 5.906596183776855 20.23747062683105 5.907966613769531 20.27905082702637 5.907966613769531 C 20.27934646606445 5.907966613769531 20.2796459197998 5.907966613769531 20.27993965148926 5.907966613769531 C 20.31945991516113 5.907886505126953 20.38558959960938 5.9077467918396 20.38889122009277 5.722896575927734 C 20.39043998718262 5.634846687316895 20.38895988464355 5.541086673736572 20.38739013671875 5.441816806793213 C 20.3846607208252 5.269576549530029 20.38157081604004 5.074356555938721 20.39484977722168 4.871996879577637 C 20.40873718261719 4.656744003295898 20.38229942321777 4.581025123596191 20.30790328979492 4.535996913909912 L 20.2852840423584 4.535996913909912 M 20.02279090881348 3.535996913909912 L 20.4961109161377 3.535996913909912 C 21.17333984375 3.760166645050049 21.43733978271484 4.245636940002441 21.39278030395508 4.936376571655273 C 21.37523078918457 5.203756809234619 21.39346122741699 5.47248649597168 21.38873100280762 5.740536689758301 C 21.3765811920166 6.422496795654297 20.91609001159668 6.906616687774658 20.28207015991211 6.907966613769531 C 20.2807731628418 6.907970905303955 20.27937126159668 6.907973289489746 20.27807426452637 6.907973289489746 C 19.63597106933594 6.907973289489746 19.17742538452148 6.419741630554199 19.17000961303711 5.72365665435791 C 19.16662979125977 5.4002366065979 19.16798973083496 5.076816558837891 19.17000961303711 4.754066944122314 C 19.17339134216309 4.147056579589844 19.39890098571777 3.819586753845215 19.97282981872559 3.580566883087158 C 19.99241065979004 3.572456836700439 20.00591087341309 3.550856590270996 20.02279090881348 3.535996913909912 Z"/>
    </g>
    <g id="Path_49" data-name="Path 49" class="cls-1" transform="translate(-1.354)">
      <path class="cls-2" d="M8.846,3.536c.381.16.766.369.808.81a8,8,0,0,1,0,1.761A1.016,1.016,0,0,1,8.5,6.9a1.063,1.063,0,0,1-.98-.984c-.026-.431-.024-.867-.009-1.3A1.065,1.065,0,0,1,8.272,3.59a.761.761,0,0,0,.1-.054Z"/>
      <path class="cls-3" d="M 8.598052024841309 4.536002159118652 C 8.551029205322266 4.554762363433838 8.525347709655762 4.571695804595947 8.515758514404297 4.579718589782715 C 8.512659072875977 4.589449405670166 8.507499694824219 4.613057613372803 8.506189346313477 4.652692317962646 C 8.490139007568359 5.119622230529785 8.492749214172363 5.502132415771484 8.514369010925293 5.856332302093506 C 8.515769004821777 5.879252433776855 8.547019004821777 5.901922225952148 8.580819129943848 5.90482234954834 C 8.588239669799805 5.905452251434326 8.595869064331055 5.90577220916748 8.603479385375977 5.90577220916748 C 8.628314018249512 5.90577220916748 8.6500244140625 5.902286052703857 8.667150497436523 5.897794723510742 C 8.710818290710449 5.504051685333252 8.711374282836914 5.063492774963379 8.668820381164551 4.557000637054443 C 8.65776252746582 4.550751209259033 8.644815444946289 4.54375696182251 8.62971019744873 4.536002159118652 L 8.598052024841309 4.536002159118652 M 8.373069763183594 3.536002159118652 L 8.846389770507812 3.536002159118652 C 9.227879524230957 3.696022510528564 9.612070083618164 3.905332565307617 9.653928756713867 4.346242427825928 C 9.709299087524414 4.928942203521729 9.723479270935059 5.528522491455078 9.649199485778809 6.10717248916626 C 9.586109161376953 6.599912166595459 9.11212158203125 6.905776023864746 8.603475570678711 6.905776023864746 C 8.567758560180664 6.905776023864746 8.531888008117676 6.904269218444824 8.495959281921387 6.901212692260742 C 7.975369453430176 6.85665225982666 7.548649787902832 6.446802139282227 7.516239166259766 5.917442321777344 C 7.489899635314941 5.485992431640625 7.491929054260254 5.050482273101807 7.506779670715332 4.61835241317749 C 7.523659706115723 4.107222557067871 7.792389869689941 3.765572547912598 8.272459030151367 3.590012550354004 C 8.30756950378418 3.577192306518555 8.33997917175293 3.554232120513916 8.373069763183594 3.536002159118652 Z"/>
    </g>
    <g id="Path_50" data-name="Path 50" class="cls-1" transform="translate(-2.716 -3.41)">
      <path class="cls-2" d="M13.439,14.034v1.533h-1.75V14.034Z"/>
      <path class="cls-3" d="M 11.68900394439697 14.03400325775146 L 13.43912410736084 14.03400325775146 L 13.43912410736084 15.56738376617432 L 11.68900394439697 15.56738376617432 L 11.68900394439697 14.03400325775146 Z"/>
    </g>
    <g id="Path_4993" data-name="Path 4993" class="cls-1" transform="translate(-5.716 -3.41)">
      <path class="cls-2" d="M13.439,14.034v1.533h-1.75V14.034Z"/>
      <path class="cls-3" d="M 11.68900394439697 14.03400325775146 L 13.43912410736084 14.03400325775146 L 13.43912410736084 15.56738376617432 L 11.68900394439697 15.56738376617432 L 11.68900394439697 14.03400325775146 Z"/>
    </g>
    <g id="Path_51" data-name="Path 51" class="cls-1" transform="translate(-2.719 -5.937)">
      <path class="cls-2" d="M13.437,23.362H11.7V21.816h1.739Z"/>
      <path class="cls-3" d="M 13.43732261657715 23.36221694946289 L 11.69800186157227 23.36221694946289 L 11.69800186157227 21.81599807739258 L 13.43732261657715 21.81599807739258 L 13.43732261657715 23.36221694946289 Z"/>
    </g>
    <g id="Path_52" data-name="Path 52" class="cls-1" transform="translate(-1.362 -5.936)">
      <path class="cls-2" d="M7.521,21.813H9.265V23.35H7.521Z"/>
      <path class="cls-3" d="M 7.52099609375 21.8129997253418 L 9.265056610107422 21.8129997253418 L 9.265056610107422 23.35044097900391 L 7.52099609375 23.35044097900391 L 7.52099609375 21.8129997253418 Z"/>
    </g>
    <g id="Path_53" data-name="Path 53" class="cls-1" transform="translate(-5.379 -3.408)">
      <path class="cls-2" d="M21.624,15.571H19.887V14.029h1.737Z"/>
      <path class="cls-3" d="M 21.62430000305176 15.57116317749023 L 19.88699913024902 15.57116317749023 L 19.88699913024902 14.02900314331055 L 21.62430000305176 14.02900314331055 L 21.62430000305176 15.57116317749023 Z"/>
    </g>
    <g id="Path_54" data-name="Path 54" class="cls-1" transform="translate(-4.096 -5.938)">
      <path class="cls-2" d="M15.939,23.357V21.818h1.754v1.539Z"/>
      <path class="cls-3" d="M 17.6925048828125 23.35678482055664 L 15.93900394439697 23.35678482055664 L 15.93900394439697 21.8180046081543 L 17.6925048828125 21.8180046081543 L 17.6925048828125 23.35678482055664 Z"/>
    </g>
    <g id="Path_55" data-name="Path 55" class="cls-1" transform="translate(-5.379 -5.937)">
      <path class="cls-2" d="M21.628,21.814v1.544H19.887V21.814Z"/>
      <path class="cls-3" d="M 19.88699531555176 21.81400299072266 L 21.62767601013184 21.81400299072266 L 21.62767601013184 23.35819435119629 L 19.88699531555176 23.35819435119629 L 19.88699531555176 21.81400299072266 Z"/>
    </g>
    <g id="Path_56" data-name="Path 56" class="cls-1" transform="translate(-4.097 -3.409)">
      <path class="cls-2" d="M15.94,15.559V14.033h1.742v1.526Z"/>
      <path class="cls-3" d="M 17.68202209472656 15.55896091461182 L 15.94000244140625 15.55896091461182 L 15.94000244140625 14.03299999237061 L 17.68202209472656 14.03299999237061 L 17.68202209472656 15.55896091461182 Z"/>
    </g>
    <g id="Path_57" data-name="Path 57" class="cls-1" transform="translate(-1.362 -4.663)">
      <path class="cls-2" d="M9.265,19.427H7.52V17.894H9.265Z"/>
      <path class="cls-3" d="M 9.264723777770996 19.42671394348145 L 7.520003318786621 19.42671394348145 L 7.520003318786621 17.89399528503418 L 9.264723777770996 17.89399528503418 L 9.264723777770996 19.42671394348145 Z"/>
    </g>
    <g id="Path_58" data-name="Path 58" class="cls-1" transform="translate(-2.717 -4.66)">
      <path class="cls-2" d="M11.693,17.883h1.745v1.533H11.693Z"/>
      <path class="cls-3" d="M 11.69300079345703 17.88299751281738 L 13.43840026855469 17.88299751281738 L 13.43840026855469 19.41571617126465 L 11.69300079345703 19.41571617126465 L 11.69300079345703 17.88299751281738 Z"/>
    </g>
    <g id="Path_59" data-name="Path 59" class="cls-1" transform="translate(-4.098 -4.663)">
      <path class="cls-2" d="M17.691,17.892v1.529H15.944V17.892Z"/>
      <path class="cls-3" d="M 15.94400596618652 17.89200019836426 L 17.69075393676758 17.89200019836426 L 17.69075393676758 19.4206600189209 L 15.94400596618652 19.4206600189209 L 15.94400596618652 17.89200019836426 Z"/>
    </g>
    <g id="Path_60" data-name="Path 60" class="cls-1" transform="translate(-5.376 -4.664)">
      <path class="cls-2" d="M19.878,19.424V17.9h1.747v1.529Z"/>
      <path class="cls-3" d="M 21.62542533874512 19.42366218566895 L 19.87800407409668 19.42366218566895 L 19.87800407409668 17.8950023651123 L 21.62542533874512 17.8950023651123 L 21.62542533874512 19.42366218566895 Z"/>
    </g>
  </g>
</svg>
