<?xml version="1.0" encoding="utf-8"?>
<!-- Generator: Adobe Illustrator 19.0.0, SVG Export Plug-In . SVG Version: 6.00 Build 0)  -->
<svg version="1.1" id="Layer_1" xmlns="http://www.w3.org/2000/svg" xmlns:xlink="http://www.w3.org/1999/xlink" x="0px" y="0px"
	 viewBox="0 0 50 50" style="enable-background:new 0 0 50 50;" xml:space="preserve">
<style type="text/css">
	.st0{fill:none;stroke:#8B8B8B;stroke-miterlimit:10;}
</style>
<g>
	<g>
		<g>
			<path class="st0" d="M16.2,25.7c2.5,1.6,4.2,4.1,6.1,6.4c0.2-1.4,0.3-2.7-0.2-4c-1.7-4.4-4.9-7-9.5-7.9c-0.9-0.2-1.9-0.3-2.8-0.4
				c-0.6-0.1-0.8,0.1-0.7,0.7c0.7,5.5,3.6,9.6,8.5,12.2c0.8,0.4,1.8,0.5,2.7,0.7c0.7,0.1,1-0.1,0.6-0.8c-1.1-1.7-2.2-3.5-3.3-5.2
				C17.1,26.8,16.6,26.3,16.2,25.7z"/>
			<path class="st0" d="M24,25.7c1.1-3,1.1-6,1.5-8.9c0.7,2.9,0.3,5.8,0,8.9c1.7-1.4,2.7-2.8,3.2-4.7c1.2-4.6-0.2-8.5-3.1-12.1
				c-0.1-0.1-0.2-0.2-0.3-0.3C24.1,7.3,24.1,7.3,23,9c-2.7,4.3-3,8.8-1.4,13.5C22.1,23.7,22.9,24.7,24,25.7z"/>
			<path class="st0" d="M27.7,31.6c1.9-2.6,3.5-5,5.9-6.6c-1.6,2.4-3.6,4.6-4.8,7.5c1.4,0.1,2.6-0.1,3.6-0.6
				c4.9-2.5,7.7-6.5,8.5-11.9c0.1-1,0-1-1-0.9c-2.9,0.3-5.6,0.9-7.9,2.7c-2.9,2.3-4.8,5.2-4.4,9.1C27.7,31,27.7,31.1,27.7,31.6z"/>
		</g>
		<path class="st0" d="M25.5,47.8c0,0-0.8-11.3-4.9-16.4"/>
		<path class="st0" d="M24.5,41c0,0,0.1-7.2,5.4-11.5"/>
	</g>
	<circle class="st0" cx="25" cy="23.7" r="21.5"/>
</g>
</svg>
