<?xml version="1.0" encoding="utf-8"?>
<!-- Generator: Adobe Illustrator 19.0.0, SVG Export Plug-In . SVG Version: 6.00 Build 0)  -->
<svg version="1.1" id="Layer_1" xmlns="http://www.w3.org/2000/svg" xmlns:xlink="http://www.w3.org/1999/xlink" x="0px" y="0px"
	 viewBox="0 0 90 80" style="enable-background:new 0 0 90 80;" xml:space="preserve">
<style type="text/css">
	.st0{display:none;}
	.st1{display:inline;}
	.st2{clip-path:url(#XMLID_80_);fill:none;stroke:#8B8B8B;stroke-width:1.35;stroke-miterlimit:10;}
	.st3{display:inline;fill:none;stroke:#8B8B8B;stroke-width:1.35;stroke-miterlimit:10;}
	.st4{display:inline;fill:#8B8B8B;}
	.st5{clip-path:url(#XMLID_81_);fill:none;stroke:#8B8B8B;stroke-width:1.35;stroke-miterlimit:10;}
	.st6{clip-path:url(#XMLID_81_);fill:#8B8B8B;}
	.st7{clip-path:url(#SVGID_2_);fill:none;stroke:#8B8B8B;stroke-width:1.35;stroke-miterlimit:10;}
	.st8{fill:none;stroke:#8B8B8B;stroke-width:1.35;stroke-miterlimit:10;}
	.st9{fill:#8B8B8B;}
	.st10{clip-path:url(#SVGID_4_);fill:none;stroke:#8B8B8B;stroke-width:1.35;stroke-miterlimit:10;}
	.st11{clip-path:url(#SVGID_4_);fill:#8B8B8B;}
</style>
<g id="XMLID_53_" class="st0">
	<g class="st1">
		<defs>
			<rect id="XMLID_77_" x="5.5" y="2.6" width="78.9" height="74.8"/>
		</defs>
		<clipPath id="XMLID_80_">
			<use xlink:href="#XMLID_77_"  style="overflow:visible;"/>
		</clipPath>
		<rect id="XMLID_78_" x="19.6" y="3.3" class="st2" width="24.9" height="19.6"/>
	</g>
	<rect id="XMLID_76_" x="24.1" y="6.8" class="st3" width="16.1" height="12.6"/>
	<rect id="XMLID_75_" x="26.8" y="9.5" class="st4" width="11.2" height="1.6"/>
	<rect id="XMLID_74_" x="28.1" y="13.1" class="st4" width="2.9" height="2.9"/>
	<rect id="XMLID_73_" x="33.1" y="13.1" class="st4" width="2.9" height="2.9"/>
	<rect id="XMLID_72_" x="65.7" y="65.9" class="st4" width="1.5" height="6.3"/>
	<rect id="XMLID_71_" x="79.2" y="65.9" class="st4" width="1.5" height="6.3"/>
	<g class="st1">
		<defs>
			<rect id="XMLID_54_" x="5.5" y="2.6" width="78.9" height="74.8"/>
		</defs>
		<clipPath id="XMLID_81_">
			<use xlink:href="#XMLID_54_"  style="overflow:visible;"/>
		</clipPath>
		<rect id="XMLID_70_" x="62.5" y="53.3" class="st5" width="21.3" height="5.8"/>
		<rect id="XMLID_69_" x="62.5" y="59.1" class="st5" width="21.3" height="6.8"/>
		
			<ellipse id="XMLID_68_" transform="matrix(0.9999 1.116607e-02 -1.116607e-02 0.9999 0.3808 -0.8157)" class="st5" cx="73.2" cy="33.7" rx="3.9" ry="1.1"/>
		<path id="XMLID_67_" class="st5" d="M70.3,34.3l-2.8,5.3c0,0,4.8,3.5,10.7,0.4l-2.5-5.3l-1.1,0.5c0,0,0,0-0.1,0l-3-0.2
			c-0.2,0-0.4-0.1-0.6-0.2L70.3,34.3z"/>
		<ellipse id="XMLID_66_" class="st5" cx="73.5" cy="50.6" rx="3.4" ry="1.7"/>
		<ellipse id="XMLID_65_" class="st5" cx="73.5" cy="46.6" rx="2.6" ry="1.3"/>
		<ellipse id="XMLID_64_" class="st5" cx="73.5" cy="43.3" rx="2.6" ry="1.3"/>
		<path id="XMLID_63_" class="st6" d="M74.2,56c0,0.6-0.5,1.1-1.1,1.1c-0.6,0-1.1-0.5-1.1-1.1c0-0.6,0.5-1.1,1.1-1.1
			C73.7,54.9,74.2,55.4,74.2,56"/>
		<path id="XMLID_62_" class="st6" d="M74.2,62.7c0,0.6-0.5,1.1-1.1,1.1c-0.6,0-1.1-0.5-1.1-1.1c0-0.6,0.5-1.1,1.1-1.1
			C73.7,61.6,74.2,62.1,74.2,62.7"/>
		<path id="XMLID_61_" class="st5" d="M6.2,70H58V50.1c0-2.2-1.8-4-4-4h-0.3c-2.2,0-4,1.8-4,4v5.6c0,2.2-1.8,4-4,4H18.1
			c-2.2,0-4-1.8-4-4v-5.6c0-2.2-1.8-4-4-4c-2.2,0-4,1.8-4,4V70z"/>
		<polyline id="XMLID_60_" class="st5" points="10.2,46.2 10.2,28.1 53.7,28.1 53.7,45.6 		"/>
		<path id="XMLID_59_" class="st5" d="M46.1,60H18.3c-1.9,0-3.4-1.5-3.4-3.4v-8.8c0-1.9,1.5-3.4,3.4-3.4h27.7c1.9,0,3.4,1.5,3.4,3.4
			v8.8C49.5,58.5,48,60,46.1,60z"/>
		<rect id="XMLID_58_" x="15.6" y="70" class="st5" width="6.7" height="6.7"/>
		<rect id="XMLID_57_" x="41.9" y="70" class="st5" width="6.7" height="6.7"/>
		<line id="XMLID_56_" class="st5" x1="6.2" y1="65.5" x2="58" y2="65.5"/>
		<line id="XMLID_55_" class="st5" x1="10.2" y1="33.5" x2="53.7" y2="33.5"/>
	</g>
</g>
<g>
	<defs>
		<rect id="SVGID_1_" x="4.4" y="4.2" width="78.9" height="74.8"/>
	</defs>
	<clipPath id="SVGID_2_">
		<use xlink:href="#SVGID_1_"  style="overflow:visible;"/>
	</clipPath>
	<rect x="18.5" y="4.9" class="st7" width="24.9" height="19.6"/>
</g>
<rect x="22.9" y="8.4" class="st8" width="16.1" height="12.6"/>
<rect x="25.6" y="11.1" class="st9" width="11.2" height="1.6"/>
<rect x="27" y="14.7" class="st9" width="2.9" height="2.9"/>
<rect x="32" y="14.7" class="st9" width="2.9" height="2.9"/>
<rect x="64.5" y="67.5" class="st9" width="1.5" height="6.3"/>
<rect x="78.1" y="67.5" class="st9" width="1.5" height="6.3"/>
<g>
	<defs>
		<rect id="SVGID_3_" x="4.4" y="4.2" width="78.9" height="74.8"/>
	</defs>
	<clipPath id="SVGID_4_">
		<use xlink:href="#SVGID_3_"  style="overflow:visible;"/>
	</clipPath>
	<rect x="61.4" y="54.9" class="st10" width="21.3" height="5.8"/>
	<rect x="61.4" y="60.7" class="st10" width="21.3" height="6.8"/>
	
		<ellipse transform="matrix(0.9999 1.116607e-02 -1.116607e-02 0.9999 0.3986 -0.8032)" class="st10" cx="72.1" cy="35.3" rx="3.9" ry="1.1"/>
	<path class="st10" d="M69.2,35.9l-2.8,5.3c0,0,4.8,3.5,10.7,0.4l-2.5-5.3l-1.1,0.5c0,0,0,0-0.1,0l-3-0.2c-0.2,0-0.4-0.1-0.6-0.2
		L69.2,35.9z"/>
	<ellipse class="st10" cx="72.4" cy="52.2" rx="3.4" ry="1.7"/>
	<ellipse class="st10" cx="72.4" cy="48.2" rx="2.6" ry="1.3"/>
	<ellipse class="st10" cx="72.4" cy="44.9" rx="2.6" ry="1.3"/>
	<path class="st11" d="M73.1,57.6c0,0.6-0.5,1.1-1.1,1.1S71,58.2,71,57.6c0-0.6,0.5-1.1,1.1-1.1S73.1,57,73.1,57.6"/>
	<path class="st11" d="M73.1,64.3c0,0.6-0.5,1.1-1.1,1.1S71,64.9,71,64.3c0-0.6,0.5-1.1,1.1-1.1S73.1,63.7,73.1,64.3"/>
	<path class="st10" d="M5.1,71.6h51.8V51.7c0-2.2-1.8-4-4-4h-0.3c-2.2,0-4,1.8-4,4v5.6c0,2.2-1.8,4-4,4H17c-2.2,0-4-1.8-4-4v-5.6
		c0-2.2-1.8-4-4-4c-2.2,0-4,1.8-4,4V71.6z"/>
	<polyline class="st10" points="9.1,47.8 9.1,29.7 52.6,29.7 52.6,47.2 	"/>
	<path class="st10" d="M45,61.6H17.2c-1.9,0-3.4-1.5-3.4-3.4v-8.8c0-1.9,1.5-3.4,3.4-3.4H45c1.9,0,3.4,1.5,3.4,3.4v8.8
		C48.4,60.1,46.9,61.6,45,61.6z"/>
	<rect x="14.5" y="71.6" class="st10" width="6.7" height="6.7"/>
	<rect x="40.8" y="71.6" class="st10" width="6.7" height="6.7"/>
	<line class="st10" x1="5.1" y1="67.1" x2="56.9" y2="67.1"/>
	<line class="st10" x1="9.1" y1="35.1" x2="52.6" y2="35.1"/>
</g>
</svg>
