<svg xmlns="http://www.w3.org/2000/svg" xmlns:xlink="http://www.w3.org/1999/xlink" preserveAspectRatio="xMidYMid" width="12.367" height="16.992" viewBox="0 0 12.367 16.992">
  <defs>
    <style>
      .cls-1 {
        stroke: #3fcade;
        stroke-width: 1.24186px;
        fill: none;
        fill-rule: evenodd;
      }
    </style>
  </defs>
  <path d="M11.752,6.313 C11.752,3.173 9.263,0.627 6.192,0.627 C3.121,0.627 0.632,3.173 0.632,6.313 C0.632,7.453 0.963,8.512 1.527,9.402 L1.524,9.403 L1.565,9.464 C1.578,9.486 1.593,9.506 1.607,9.527 L6.192,16.370 L10.762,9.548 C10.784,9.515 10.807,9.481 10.829,9.447 L10.862,9.398 L10.860,9.395 C11.422,8.506 11.752,7.450 11.752,6.313 ZM6.192,8.498 C4.984,8.498 4.005,7.497 4.005,6.262 C4.005,5.027 4.984,4.026 6.192,4.026 C7.399,4.026 8.378,5.027 8.378,6.262 C8.378,7.497 7.399,8.498 6.192,8.498 Z" class="cls-1"/>
</svg>
