<svg xmlns="http://www.w3.org/2000/svg" width="27.735" height="33.281" viewBox="0 0 27.735 33.281">
  <g id="notification" transform="translate(-42.657)">
    <g id="Group_1167" data-name="Group 1167" transform="translate(42.657 4.853)">
      <g id="Group_1166" data-name="Group 1166">
        <path id="Path_4975" data-name="Path 4975" d="M70.294,97.885l-2.382-3.969a11.8,11.8,0,0,1-1.679-6.065V84.374a9.707,9.707,0,0,0-19.414,0V87.85a11.8,11.8,0,0,1-1.679,6.065l-2.382,3.969a.693.693,0,0,0,.595,1.05H69.7a.693.693,0,0,0,.595-1.05Zm-25.718-.337,1.751-2.919A13.171,13.171,0,0,0,48.2,87.85V84.374a8.32,8.32,0,0,1,16.64,0V87.85a13.183,13.183,0,0,0,1.876,6.778l1.753,2.919Z" transform="translate(-42.657 -74.667)" fill="#60c1c3"/>
      </g>
    </g>
    <g id="Group_1169" data-name="Group 1169" transform="translate(53.752)">
      <g id="Group_1168" data-name="Group 1168">
        <path id="Path_4976" data-name="Path 4976" d="M216.106,0a2.776,2.776,0,0,0-2.773,2.773V5.547a.693.693,0,0,0,1.387,0V2.773a1.387,1.387,0,0,1,2.773,0V5.547a.693.693,0,0,0,1.387,0V2.773A2.776,2.776,0,0,0,216.106,0Z" transform="translate(-213.333)" fill="#60c1c3"/>
      </g>
    </g>
    <g id="Group_1171" data-name="Group 1171" transform="translate(53.058 27.735)">
      <g id="Group_1170" data-name="Group 1170">
        <path id="Path_4977" data-name="Path 4977" d="M209.134,427.021a.694.694,0,1,0-1.2.7,2.08,2.08,0,1,1-3.6,0,.694.694,0,1,0-1.2-.7,3.468,3.468,0,1,0,6,0Z" transform="translate(-202.666 -426.68)" fill="#ff8508"/>
      </g>
    </g>
  </g>
</svg>
