<svg xmlns="http://www.w3.org/2000/svg" width="37" height="37.626" viewBox="0 0 37 37.626">
  <defs>
    <style>
      .cls-1 {
        fill: #f89e30;
      }

      .cls-2 {
        fill: #35cae0;
      }

      .cls-3 {
        fill: none;
        stroke: #35cae0;
        stroke-linejoin: round;
      }
    </style>
  </defs>
  <g id="Untitled-2" transform="translate(-0.035 0)">
    <path id="Path_5020" data-name="Path 5020" class="cls-1" d="M576.846,363H574.69v9.3h2.156Z" transform="translate(-566.301 -353.761)"/>
    <path id="Path_5021" data-name="Path 5021" class="cls-1" d="M572.995,365.7a.528.528,0,0,0-.379.115c-.181.2-.1.655-.1,1.016v3.423c0,.147,0,.328.214.328h1.975V365.67h-1.712Z" transform="translate(-567.717 -352.058)"/>
    <path id="Path_5022" data-name="Path 5022" class="cls-2" d="M583.285,357.36a13.659,13.659,0,0,0-11.522,21,12.974,12.974,0,0,0,6.831,5.487,14.882,14.882,0,0,0,4.938.884,14.283,14.283,0,0,0,8.23-2.768,22.481,22.481,0,0,0,3.292-3.489,13.692,13.692,0,0,0-11.637-21.114Zm0,24.98a11.319,11.319,0,1,1,0-22.637,11.579,11.579,0,0,1,2.963.393,11.313,11.313,0,0,1-3.029,22.244Z" transform="translate(-569.58 -357.36)"/>
    <path id="Path_5023" data-name="Path 5023" class="cls-1" d="M581.4,362.36H579.24V372.7H581.4Z" transform="translate(-563.362 -354.17)"/>
    <path id="Path_5024" data-name="Path 5024" class="cls-1" d="M578.993,364H576.82v7.731h2.173Z" transform="translate(-564.925 -353.123)"/>
    <path id="Path_5025" data-name="Path 5025" class="cls-1" d="M583.573,364.25H581.4v7.24h2.173v-7.24Z" transform="translate(-561.967 -352.964)"/>
    <path id="Path_5026" data-name="Path 5026" class="cls-2" d="M587.4,374.018h0a.612.612,0,0,1,.4.1l7.637,8.026c.1.1,0,.655-.461,1.163a1.65,1.65,0,0,1-.971.426h-.23L586,375.541c-.1-.1,0-.655.461-1.163a1.469,1.469,0,0,1,.938-.36m0-1.638a3.086,3.086,0,0,0-2.057.8,2.514,2.514,0,0,0-.543,3.473l7.769,8.19A1.947,1.947,0,0,0,594,385.4a3.167,3.167,0,0,0,2.09-.868,2.515,2.515,0,0,0,.543-3.473L589,373.019a2.178,2.178,0,0,0-1.646-.606Z" transform="translate(-560.069 -347.777)"/>
    <line id="Line_136" data-name="Line 136" class="cls-3" x2="4.675" y2="5.012" transform="translate(22.133 21.687)"/>
    <path id="Path_5027" data-name="Path 5027" class="cls-3" d="M21.689,19.72,19.22,22.03l2.271,2.244L23.2,22.865l.148-1.556Z" transform="translate(12.394 12.582)"/>
  </g>
</svg>
