<svg xmlns="http://www.w3.org/2000/svg" width="33.999" height="34" viewBox="0 0 33.999 34">
  <defs>
    <style>
      .cls-1, .cls-2, .cls-6 {
        fill: none;
      }

      .cls-1, .cls-2 {
        stroke-miterlimit: 10;
      }

      .cls-2 {
        stroke: #60c1c3;
        stroke-width: 1.627px;
      }

      .cls-3 {
        fill: #60c1c3;
      }

      .cls-4, .cls-5 {
        stroke: none;
      }

      .cls-5 {
        fill: #ff8407;
      }
    </style>
  </defs>
  <g id="Vector_Smart_Object4" data-name="Vector Smart Object4" transform="translate(-13.806 -13.219)">
    <g id="Group_11" data-name="Group 11">
      <g id="Path_9" data-name="Path 9" class="cls-1">
        <path class="cls-4" d="M40.427,47.219H36.319q0-.781,0-1.561c0-.714,0-.713-.691-.992a2.98,2.98,0,0,1-.494-.223c-.238-.15-.393-.083-.571.107-.443.471-.9.924-1.355,1.379l-2.949-2.893c.463-.442.925-.9,1.4-1.331a.389.389,0,0,0,.112-.561,4.65,4.65,0,0,1-.388-.906c-.068-.223-.185-.262-.391-.26-.684.009-1.369,0-2.053,0V35.952a16.576,16.576,0,0,1,1.675.011c.523.052.8-.115.9-.614a1.738,1.738,0,0,1,.252-.561c.153-.237.08-.387-.111-.56-.479-.435-.941-.888-1.4-1.33L33.206,30c.45.456.913.909,1.356,1.379a.4.4,0,0,0,.571.11,3.928,3.928,0,0,1,.883-.369c.264-.07.31-.2.3-.438-.012-.657,0-1.315,0-1.972h4.108c0,.535.038,1.072-.009,1.6-.044.5.056.834.623.928a1.623,1.623,0,0,1,.572.247c.241.15.394.08.571-.108.444-.469.907-.923,1.357-1.378L46.49,32.9c-.464.441-.925.9-1.4,1.331a.385.385,0,0,0-.112.56,3.816,3.816,0,0,1,.375.866c.072.258.207.3.447.3.671-.013,1.341,0,2.011,0v4.029a16.557,16.557,0,0,1-1.674-.011c-.522-.051-.8.113-.9.613a1.776,1.776,0,0,1-.252.562c-.15.235-.082.386.11.56.48.434.941.888,1.4,1.325l-2.931,2.882c-.453-.448-.921-.9-1.368-1.362a.405.405,0,0,0-.572-.109,4.028,4.028,0,0,1-.884.368c-.264.07-.309.2-.3.438C40.436,45.9,40.428,46.562,40.427,47.219Zm-2.073-5.768a3.486,3.486,0,1,0-3.533-3.5A3.562,3.562,0,0,0,38.354,41.452Z"/>
        <path class="cls-5" d="M 39.21024703979492 45.99904251098633 C 39.20997619628906 45.75453567504883 39.20830535888672 45.50970077514648 39.20377731323242 45.2685546875 C 39.18300628662109 44.0827522277832 40.04610824584961 43.72681427001953 40.41556930541992 43.6295051574707 C 40.59409713745117 43.58206176757812 40.80006790161133 43.49489212036133 41.02501678466797 43.37194442749023 C 41.29689788818359 43.2224235534668 41.57596969604492 43.14660263061523 41.85444641113281 43.14660263061523 C 42.30266952514648 43.14660263061523 42.71023941040039 43.3345832824707 43.06646728515625 43.70597457885742 C 43.22437286376953 43.87083435058594 43.3880729675293 44.03612518310547 43.55305480957031 44.20013809204102 L 44.73097610473633 43.04180526733398 C 44.57630920410156 42.89549255371094 44.42053604125977 42.75030517578125 44.26473999023438 42.6092529296875 C 43.48391723632812 41.90066528320312 43.58839797973633 41.04910278320312 43.94609832763672 40.4891242980957 C 44.01297760009766 40.38426971435547 44.03118133544922 40.33275985717773 44.03415298461914 40.32350158691406 C 44.24881362915039 39.33219146728516 44.96869659423828 38.74047470092773 45.96037673950195 38.74047470092773 C 46.0529899597168 38.74047470092773 46.15072631835938 38.7454719543457 46.25306701660156 38.75556182861328 C 46.35343933105469 38.76562881469727 46.46149826049805 38.7720947265625 46.58459854125977 38.7752685546875 L 46.58459854125977 37.1682243347168 C 46.29045867919922 37.16838073730469 46.04598999023438 37.17053985595703 45.8147087097168 37.17505264282227 C 45.79879760742188 37.17531204223633 45.78321838378906 37.17545318603516 45.76781845092773 37.17545318603516 C 44.62779998779297 37.17545318603516 44.27214813232422 36.34103393554688 44.17268753051758 35.98421478271484 C 44.12153625488281 35.80183410644531 44.03523635864258 35.60486221313477 43.91508865356445 35.39688491821289 C 43.49965667724609 34.67470169067383 43.63042831420898 33.89992523193359 44.26476669311523 33.3244743347168 C 44.42181015014648 33.18196487426758 44.57934951782227 33.03485870361328 44.73592376708984 32.88658142089844 L 43.5516471862793 31.72443771362305 C 43.38911437988281 31.88922882080078 43.22782135009766 32.05500411987305 43.07212829589844 32.21975326538086 C 42.71413803100586 32.59953308105469 42.30363845825195 32.7921028137207 41.85202789306641 32.7921028137207 C 41.54888916015625 32.7921028137207 41.25164794921875 32.70282363891602 40.96764755249023 32.52617263793945 C 40.88195419311523 32.47277450561523 40.8380126953125 32.45165252685547 40.81984329223633 32.44393157958984 C 40.03210067749023 32.30698013305664 39.63599014282227 31.8780632019043 39.44216918945312 31.54067420959473 C 39.16448974609375 31.05733299255371 39.17218780517578 30.54911422729492 39.20223999023438 30.20770263671875 C 39.21016693115234 30.11860466003418 39.21515274047852 30.02721786499023 39.21804428100586 29.9337043762207 L 37.53582000732422 29.9337043762207 C 37.53595733642578 30.1773796081543 37.53745269775391 30.42087554931641 37.54191970825195 30.65889358520508 C 37.5599479675293 31.48397254943848 37.10599899291992 32.09894180297852 36.33121871948242 32.30298233032227 C 36.14788818359375 32.35186386108398 35.94448852539062 32.43804168701172 35.72477722167969 32.56017303466797 C 35.45201873779297 32.71116256713867 35.17184829711914 32.78772354125977 34.89202880859375 32.78772354125977 C 34.43951797485352 32.78772354125977 34.02994918823242 32.59663391113281 33.67485809326172 32.21993255615234 C 33.51900482177734 32.05465698242188 33.35765838623047 31.88872146606445 33.19530487060547 31.72402191162109 L 32.0106315612793 32.88614654541016 C 32.16715240478516 33.03421401977539 32.32444763183594 33.18106842041016 32.48088836669922 33.32333374023438 C 33.26649856567383 34.0360221862793 33.1591682434082 34.88909530639648 32.79617691040039 35.45070266723633 C 32.72760772705078 35.55660247802734 32.71263885498047 35.60807418823242 32.71267700195312 35.608154296875 C 32.49656677246094 36.60020446777344 31.77677726745605 37.19247436523438 30.78725814819336 37.19247436523438 C 30.69377899169922 37.19247436523438 30.59510803222656 37.18733215332031 30.49397850036621 37.17721176147461 C 30.39314651489258 37.1671142578125 30.28468322753906 37.16063690185547 30.16119766235352 37.15746307373047 L 30.16119766235352 38.76345062255859 C 30.47474479675293 38.76339340209961 30.73456954956055 38.76185989379883 30.98082733154297 38.75860214233398 L 31.00777816772461 38.75846481323242 C 32.09256744384766 38.75846481323242 32.4492073059082 39.54514312744141 32.5517578125 39.88196182250977 C 32.62130737304688 40.10940170288086 32.71750640869141 40.33354187011719 32.83735656738281 40.54757308959961 C 33.24182891845703 41.26900482177734 33.10863876342773 42.03972244262695 32.48198699951172 42.60841369628906 C 32.32490539550781 42.75125885009766 32.16736602783203 42.89833831787109 32.01067733764648 43.04664611816406 L 33.19565582275391 44.20907592773438 C 33.35700225830078 44.04502868652344 33.51700973510742 43.87985610961914 33.67162704467773 43.71516418457031 C 34.02913665771484 43.33404159545898 34.44026947021484 43.14080429077148 34.89360809326172 43.14080429077148 C 35.19958877563477 43.14080429077148 35.4988899230957 43.23163223266602 35.78439712524414 43.41152191162109 C 35.81410980224609 43.42899322509766 35.90673828125 43.46503448486328 35.97436904907227 43.4913444519043 C 36.00984954833984 43.50515365600586 36.0452995300293 43.51897430419922 36.08051681518555 43.53308486938477 L 36.08493804931641 43.53486251831055 L 36.0864372253418 43.53547286987305 C 37.23962783813477 44.00108337402344 37.5380973815918 44.43752288818359 37.5380973815918 45.65816497802734 C 37.5380973815918 45.77174377441406 37.53814697265625 45.8853759765625 37.53822326660156 45.99904251098633 L 39.21024703979492 45.99904251098633 M 38.37173843383789 33.26059341430664 L 38.39889907836914 33.26067352294922 C 39.6539192199707 33.26788330078125 40.84274673461914 33.76510238647461 41.74639892578125 34.66074371337891 C 42.65685653686523 35.56313323974609 43.15416717529297 36.74611282348633 43.1467399597168 37.99178314208984 C 43.13932800292969 39.233642578125 42.63207626342773 40.40843200683594 41.71843719482422 41.29975509643555 C 40.81125640869141 42.18476486206055 39.62352752685547 42.67215347290039 38.37402725219727 42.67215347290039 L 38.34689712524414 42.67207336425781 C 37.09085845947266 42.66487503051758 35.90173721313477 42.167724609375 34.99857711791992 41.27220153808594 C 34.08863830566406 40.36997222900391 33.59198760986328 39.18667221069336 33.6000862121582 37.94098281860352 C 33.60748672485352 36.6982421875 34.1143798828125 35.52321243286133 35.02738952636719 34.63233184814453 C 35.93392944335938 33.74775314331055 37.12164688110352 33.26059341430664 38.37173843383789 33.26059341430664 M 40.42710876464844 47.219482421875 L 36.31868743896484 47.219482421875 C 36.31868743896484 46.69871520996094 36.31765747070312 46.17793273925781 36.31765747070312 45.65816497802734 C 36.31765747070312 44.94398498535156 36.31765747070312 44.94499206542969 35.6265869140625 44.66596221923828 C 35.45817947387695 44.59848403930664 35.28361892700195 44.53904342651367 35.13266754150391 44.44335174560547 C 35.04309844970703 44.38692474365234 34.96527862548828 44.36124801635742 34.89360427856445 44.36124801635742 C 34.77464294433594 44.36124801635742 34.6725959777832 44.43195724487305 34.56173706054688 44.55013275146484 C 34.11916732788086 45.02154159545898 33.65708923339844 45.47382354736328 33.206298828125 45.92913436889648 L 30.25718879699707 43.0361442565918 C 30.72029876708984 42.59393310546875 31.1823787689209 42.14064407348633 31.660888671875 41.70549392700195 C 31.85290718078613 41.53123474121094 31.90835762023926 41.38617324829102 31.77281761169434 41.14442443847656 C 31.61262893676758 40.85835266113281 31.48015785217285 40.55112457275391 31.38466835021973 40.23885345458984 C 31.31847763061523 40.02146148681641 31.20527458190918 39.97890090942383 31.00778007507324 39.97890090942383 C 31.0030403137207 39.97890090942383 30.99827575683594 39.97892761230469 30.99343872070312 39.97897338867188 C 30.71001815795898 39.98273086547852 30.42639541625977 39.98389434814453 30.14276695251465 39.98389434814453 C 29.74201393127441 39.98389434814453 29.34122467041016 39.98157501220703 28.94075775146484 39.98098373413086 L 28.94075775146484 35.95176315307617 C 29.28242301940918 35.95114517211914 29.62567710876465 35.93470001220703 29.96735954284668 35.93470001220703 C 30.18431663513184 35.93470001220703 30.40060424804688 35.94132614135742 30.61555862426758 35.96284484863281 C 30.67607307434082 35.96890640258789 30.73329734802246 35.97203063964844 30.78725433349609 35.97203063964844 C 31.19931983947754 35.97203063964844 31.42396926879883 35.79016494750977 31.52020835876465 35.34838485717773 C 31.56230735778809 35.15196228027344 31.660888671875 34.95856475830078 31.77178764343262 34.78731155395508 C 31.9247875213623 34.55059432983398 31.85187721252441 34.4005126953125 31.660888671875 34.22725296020508 C 31.1823787689209 33.7921028137207 30.72029876708984 33.33881378173828 30.25615882873535 32.89761352539062 L 33.206298828125 30.00362396240234 C 33.65605926513672 30.45993423461914 34.11916732788086 30.9122142791748 34.56276702880859 31.38262367248535 C 34.67351150512695 31.50010108947754 34.77255249023438 31.56728553771973 34.89202499389648 31.56728553771973 C 34.96309661865234 31.56728553771973 35.0413932800293 31.54351806640625 35.13369750976562 31.49242401123047 C 35.41094970703125 31.33830261230469 35.71078872680664 31.2053337097168 36.01678848266602 31.12374305725098 C 36.28068923950195 31.05424308776855 36.32689666748047 30.92026329040527 36.32176971435547 30.6855640411377 C 36.3094367980957 30.0288028717041 36.31868743896484 29.37103271484375 36.31868743896484 28.7132625579834 L 40.42710876464844 28.7132625579834 C 40.42813873291016 29.24814414978027 40.46510696411133 29.7850341796875 40.41786956787109 30.31588363647461 C 40.37371826171875 30.81752395629883 40.47434997558594 31.14993286132812 41.04116821289062 31.24361419677734 C 41.24139785766602 31.27584266662598 41.43855667114258 31.38161277770996 41.61312866210938 31.49040412902832 C 41.70309829711914 31.54636573791504 41.78080749511719 31.57166290283203 41.85203170776367 31.57166290283203 C 41.97182464599609 31.57166290283203 42.07329177856445 31.50012397766113 42.18405914306641 31.38262367248535 C 42.62765884399414 30.9132137298584 43.09076690673828 30.45993423461914 43.54154968261719 30.00462341308594 L 46.48963928222656 32.89761352539062 C 46.02549743652344 33.33881378173828 45.56444931030273 33.7931022644043 45.08490753173828 34.22826385498047 C 44.89391708374023 34.40152359008789 44.83332824707031 34.54556274414062 44.97297668457031 34.78832244873047 C 45.13008880615234 35.06029510498047 45.26357650756836 35.35442352294922 45.3477783203125 35.65460205078125 C 45.41694259643555 35.90272903442383 45.54508590698242 35.95501708984375 45.76781845092773 35.95501708984375 C 45.77656555175781 35.95501708984375 45.78541946411133 35.95493698120117 45.79445648193359 35.95478439331055 C 46.06948089599609 35.94941329956055 46.34456253051758 35.94777297973633 46.61951446533203 35.94777297973633 C 47.01492691040039 35.94777297973633 47.41013336181641 35.95116806030273 47.80503845214844 35.95176315307617 L 47.80503845214844 39.98098373413086 C 47.46400451660156 39.98160171508789 47.12060928344727 39.99804306030273 46.77895736694336 39.998046875 C 46.56201934814453 39.998046875 46.34582138061523 39.99142074584961 46.13126754760742 39.96990203857422 C 46.07106018066406 39.96397399902344 46.01413726806641 39.96091842651367 45.96037292480469 39.96091842651367 C 45.5483283996582 39.96091842651367 45.32198333740234 40.14050674438477 45.22660827636719 40.5833625793457 C 45.18450927734375 40.77978515625 45.08490753173828 40.97318267822266 44.97503662109375 41.14543533325195 C 44.82511901855469 41.38013458251953 44.89288711547852 41.53123474121094 45.08490753173828 41.70549392700195 C 45.56444931030273 42.13964462280273 46.02549743652344 42.59393310546875 46.48347854614258 43.03010177612305 L 43.55284881591797 45.91200256347656 C 43.09999847412109 45.46375274658203 42.63175964355469 45.01651382446289 42.18507766723633 44.55013275146484 C 42.07273101806641 44.43299865722656 41.97322463989258 44.36704254150391 41.85445404052734 44.36704254150391 C 41.78324508666992 44.36704254150391 41.70511627197266 44.39074325561523 41.61312866210938 44.44133377075195 C 41.33484649658203 44.59344482421875 41.03603744506836 44.72741317749023 40.72900772094727 44.80900192260742 C 40.46510696411133 44.87851333618164 40.41991806030273 45.01248168945312 40.42402648925781 45.24718475341797 C 40.43635940551758 45.9039421081543 40.42813873291016 46.56171417236328 40.42710876464844 47.219482421875 Z M 38.37173461914062 34.48103713989258 C 36.4500732421875 34.48103713989258 34.83176040649414 36.05808258056641 34.82050704956055 37.9482421875 C 34.80818939208984 39.84097290039062 36.42136764526367 41.44057464599609 38.35389709472656 41.45165252685547 C 38.36061096191406 41.45169067382812 38.3673210144043 41.45170974731445 38.37402725219727 41.45170974731445 C 40.29468154907227 41.45171356201172 41.91505813598633 39.87266159057617 41.92631912231445 37.98450469970703 C 41.93760681152344 36.0927848815918 40.3223762512207 34.49217224121094 38.39189910888672 34.48109436035156 C 38.38518142700195 34.48105621337891 38.37844467163086 34.48103713989258 38.37173461914062 34.48103713989258 Z"/>
      </g>
      <g id="Ellipse_2" data-name="Ellipse 2" class="cls-2" transform="translate(18.602 13.219)">
        <ellipse class="cls-4" cx="7.27" cy="7.132" rx="7.27" ry="7.132"/>
        <ellipse class="cls-6" cx="7.27" cy="7.132" rx="6.456" ry="6.318"/>
      </g>
      <path id="Path_10" data-name="Path 10" class="cls-3" d="M27.566,37.394H15.413a10.74,10.74,0,0,1,16.329-7.215,6.8,6.8,0,0,1,1.432-.81,12.273,12.273,0,0,0-7.18-2.31A12.083,12.083,0,0,0,13.806,38.845H27.743A9.3,9.3,0,0,1,27.566,37.394Z"/>
    </g>
  </g>
</svg>
