<svg xmlns="http://www.w3.org/2000/svg" width="29.977" height="30.043" viewBox="0 0 29.977 30.043">
  <defs>
    <style>
      .cls-1, .cls-2, .cls-3, .cls-7 {
        fill: none;
      }

      .cls-1, .cls-2, .cls-3 {
        stroke-miterlimit: 10;
      }

      .cls-2 {
        stroke: #ff8407;
        stroke-width: 0.825px;
      }

      .cls-3 {
        stroke: #60c1c3;
        stroke-width: 1.65px;
      }

      .cls-4, .cls-5, .cls-6 {
        stroke: none;
      }

      .cls-5 {
        fill: #60c1c3;
      }

      .cls-6 {
        fill: #ff8407;
      }
    </style>
  </defs>
  <g id="Vector_Smart_Object5" data-name="Vector Smart Object5" transform="translate(-19.407 -13.73)">
    <g id="Group_15" data-name="Group 15">
      <g id="Path_16" data-name="Path 16" class="cls-1">
        <path class="cls-4" d="M49.384,30.021c-1.553,1.934-4.245,5.659-5.724,7.643a6.179,6.179,0,0,1-3.261,2.39c-.6.18-1.153.487-1.745.688a.87.87,0,0,1-.667-.048.651.651,0,0,1-.173-.573c.265-1.181.559-2.357.868-3.529a1.477,1.477,0,0,1,.335-.526c1.825-2.115,4.751-6.043,6.564-8.168a1.247,1.247,0,0,1,1.191-.443,2.817,2.817,0,0,1,2.546,2.118.817.817,0,0,0,.067.137Zm-7.27,7.694c.07-.078.113-.124.153-.172,1.009-1.251,3.1-4.33,4.11-5.58.43-.532.417-.82-.137-1.258a3.4,3.4,0,0,0-.753-.377C45.2,30.2,43.9,32.118,43.7,32.36c-.54.658-1.1,1.3-1.661,1.941-.57.66-1.141,1.318-1.744,2.013A2.706,2.706,0,0,1,42.115,37.715Zm-.993.849a1.271,1.271,0,0,0-1.466-1.158l-.5,1.97Zm4.861-9.379L47.631,30.4c.083-.258.614-.391.447-.827a1.532,1.532,0,0,0-1.356-.987C46.231,28.534,46.219,29.05,45.982,29.185Z"/>
        <path class="cls-5" d="M 46.55633544921875 27.44151306152344 C 46.62604522705078 27.44151306152344 46.69775772094727 27.44581985473633 46.77174377441406 27.45396041870117 C 48.06633377075195 27.5955810546875 48.99226379394531 28.37093734741211 49.3174934387207 29.57214736938477 C 49.33021545410156 29.61935043334961 49.36199188232422 29.66353988647461 49.38424301147461 29.708740234375 L 49.38424301147461 30.02109909057617 C 47.83115386962891 31.95547866821289 45.13919448852539 35.67961883544922 43.66026306152344 37.66420745849609 C 42.80956268310547 38.80516052246094 41.80418395996094 39.63173675537109 40.3994140625 40.05456924438477 C 39.80190277099609 40.23434829711914 39.24678421020508 40.54167938232422 38.65456390380859 40.74254989624023 C 38.57083511352539 40.77083587646484 38.46741485595703 40.78599548339844 38.36396026611328 40.78599548339844 C 38.22134017944336 40.78599548339844 38.07863235473633 40.75720977783203 37.98714447021484 40.69433975219727 C 37.85048294067383 40.60093688964844 37.77420425415039 40.30064010620117 37.8144645690918 40.12085723876953 C 38.07931518554688 38.93973922729492 38.37383270263672 37.76364135742188 38.68211364746094 36.59156036376953 C 38.73296356201172 36.40174102783203 38.88128280639648 36.22296905517578 39.01688385009766 36.06528854370117 C 40.84224319458008 33.95011901855469 43.7683219909668 30.02209854125977 45.58097457885742 27.89688873291016 C 45.86177062988281 27.56794738769531 46.17885971069336 27.44151306152344 46.55633544921875 27.44151306152344 Z M 47.63092422485352 30.39772033691406 C 47.71355438232422 30.13961029052734 48.24538421630859 30.00703048706055 48.07799530029297 29.57114028930664 C 47.85445404052734 28.98862075805664 47.36819458007812 28.65015029907227 46.72195434570312 28.58385848999023 C 46.69934844970703 28.58154678344727 46.67774200439453 28.5804328918457 46.65709686279297 28.5804328918457 C 46.22977828979492 28.58041763305664 46.20784759521484 29.05612564086914 45.98248291015625 29.18547058105469 L 47.63092422485352 30.39772033691406 Z M 42.11459350585938 37.71543121337891 C 42.18451309204102 37.63708877563477 42.22795486450195 37.59189987182617 42.26714324951172 37.5436897277832 C 43.27570343017578 36.29226684570312 45.36803436279297 33.21392822265625 46.37764358520508 31.96350860595703 C 46.80776214599609 31.43119812011719 46.7950553894043 31.14395904541016 46.24097442626953 30.70505905151367 C 46.02803421020508 30.53631973266602 45.74623489379883 30.44191741943359 45.48774337768555 30.32841873168945 C 45.47835540771484 30.32432556152344 45.46791076660156 30.32233810424805 45.45652008056641 30.32233428955078 C 45.11312484741211 30.32225036621094 43.89117813110352 32.12594985961914 43.69840240478516 32.3602294921875 C 43.15810394287109 33.0180778503418 42.59344482421875 33.6568489074707 42.03725433349609 34.30163955688477 C 41.46729278564453 34.96149826049805 40.89627456665039 35.61935043334961 40.29347229003906 36.31436920166016 C 41.14417266845703 36.53531646728516 41.73002243041992 36.99230194091797 42.11459350585938 37.71543121337891 Z M 39.15884399414062 39.37562942504883 L 41.12193298339844 38.56410980224609 C 41.05984115600586 37.84909820556641 40.53128814697266 37.40385437011719 39.75238037109375 37.40384674072266 C 39.72056198120117 37.40384674072266 39.6883430480957 37.40459442138672 39.65570449829102 37.40608978271484 L 39.15884399414062 39.37562942504883 Z"/>
      </g>
      <g id="Path_17" data-name="Path 17" class="cls-1">
        <path class="cls-4" d="M36.148,27.213H23.284V26.147c.092-.007.193-.022.292-.022,3.063,0,9.2,0,12.259-.006.252,0,.34.065.318.307S36.148,26.931,36.148,27.213Z"/>
        <path class="cls-5" d="M 36.14801788330078 27.21292114257812 L 23.28363990783691 27.21292114257812 L 23.28363990783691 26.14731025695801 C 23.37580871582031 26.14027976989746 23.47644805908203 26.12520980834961 23.5760383605957 26.12520980834961 C 24.19086837768555 26.12500762939453 24.93007659912109 26.12496757507324 25.74274444580078 26.12496757507324 C 26.27941703796387 26.12496757507324 26.84805107116699 26.12498474121094 27.43502235412598 26.12498474121094 C 30.38690185546875 26.12498474121094 33.79359436035156 26.12454032897949 35.83548736572266 26.11918067932129 C 35.83735275268555 26.11917304992676 35.83920669555664 26.11916923522949 35.84104919433594 26.11916923522949 C 36.08892440795898 26.11916923522949 36.17539596557617 26.18625831604004 36.1533088684082 26.4265193939209 C 36.13105773925781 26.67659950256348 36.14801788330078 26.93070030212402 36.14801788330078 27.21292114257812 Z"/>
      </g>
      <g id="Path_18" data-name="Path 18" class="cls-1">
        <path class="cls-4" d="M23.278,29.873V28.822h12.85v1.052Z"/>
        <path class="cls-5" d="M 36.12788391113281 29.87345314025879 L 23.27834320068359 29.87345314025879 L 23.27834320068359 28.8218936920166 L 36.12788391113281 28.8218936920166 L 36.12788391113281 29.87345314025879 Z"/>
      </g>
      <g id="Path_19" data-name="Path 19" class="cls-1">
        <path class="cls-4" d="M36.123,32.5H23.283V31.444h12.84Z"/>
        <path class="cls-5" d="M 36.12259292602539 32.5018424987793 L 23.28258323669434 32.5018424987793 L 23.28258323669434 31.44426155090332 L 36.12259292602539 31.44426155090332 L 36.12259292602539 32.5018424987793 Z"/>
      </g>
      <g id="Path_20" data-name="Path 20" class="cls-1">
        <path class="cls-4" d="M29.819,40.882V34.468h1.124a.938.938,0,0,1,.023.148c0,1.551,0,4.557.006,6.107,0,.128-.069.172-.324.161S30.117,40.882,29.819,40.882Z"/>
        <path class="cls-6" d="M 30.71813011169434 40.88579559326172 C 30.6966552734375 40.88579559326172 30.67355346679688 40.8852424621582 30.64863586425781 40.8841667175293 C 30.54857063293457 40.87997436523438 30.44789695739746 40.8786735534668 30.34522438049316 40.8786735534668 C 30.17723083496094 40.8786735534668 30.00388717651367 40.88215637207031 29.81911468505859 40.88215637207031 L 29.81911468505859 34.46836471557617 L 30.94314575195312 34.46836471557617 C 30.95056533813477 34.51456451416016 30.96645545959473 34.5657844543457 30.96645545959473 34.61600494384766 C 30.96751594543457 36.16672515869141 30.96433639526367 39.17274475097656 30.97281646728516 40.72346496582031 C 30.97281646728516 40.83857727050781 30.91669464111328 40.88579559326172 30.71813011169434 40.88579559326172 Z"/>
      </g>
      <g id="Path_21" data-name="Path 21" class="cls-1">
        <path class="cls-4" d="M27.013,35.922h1.109v4.949H27.013Z"/>
        <path class="cls-6" d="M 27.01274871826172 35.92166519165039 L 28.1219482421875 35.92166519165039 L 28.1219482421875 40.8711051940918 L 27.01274871826172 40.8711051940918 L 27.01274871826172 35.92166519165039 Z"/>
      </g>
      <g id="Path_22" data-name="Path 22" class="cls-1">
        <path class="cls-4" d="M35.131,40.882V34.468h1.124a.938.938,0,0,1,.023.148c0,1.551,0,4.557.006,6.107,0,.128-.069.172-.324.161S35.429,40.882,35.131,40.882Z"/>
        <path class="cls-6" d="M 36.02999496459961 40.88579559326172 C 36.00852203369141 40.88579559326172 35.98541641235352 40.8852424621582 35.96049880981445 40.8841667175293 C 35.86003112792969 40.87997436523438 35.75925827026367 40.8786735534668 35.65662002563477 40.8786735534668 C 35.48868560791016 40.8786735534668 35.31575012207031 40.88215637207031 35.13097763061523 40.88215637207031 L 35.13097763061523 34.46836471557617 L 36.25500869750977 34.46836471557617 C 36.26242828369141 34.51456451416016 36.2783203125 34.5657844543457 36.2783203125 34.61600494384766 C 36.27937698364258 36.16672515869141 36.27619934082031 39.17274475097656 36.2846794128418 40.72346496582031 C 36.2846794128418 40.83857727050781 36.22856521606445 40.88579559326172 36.02999496459961 40.88579559326172 Z"/>
      </g>
      <g id="Path_23" data-name="Path 23" class="cls-1">
        <path class="cls-4" d="M32.324,35.922h1.11v4.949h-1.11Z"/>
        <path class="cls-6" d="M 32.32355499267578 35.92166519165039 L 33.43381500244141 35.92166519165039 L 33.43381500244141 40.8711051940918 L 32.32355499267578 40.8711051940918 L 32.32355499267578 35.92166519165039 Z"/>
      </g>
      <g id="Path_24" data-name="Path 24" class="cls-1">
        <path class="cls-4" d="M24.111,41.223V33.365h1.116v7.858Z"/>
        <path class="cls-6" d="M 25.22659301757812 41.22262573242188 L 24.11103439331055 41.22262573242188 L 24.11103439331055 33.36458587646484 L 25.22659301757812 33.36458587646484 L 25.22659301757812 41.22262573242188 Z"/>
      </g>
      <g id="Rectangle_13" data-name="Rectangle 13" class="cls-2" transform="translate(29.356 18.195)">
        <rect class="cls-4" width="8.255" height="4.854"/>
        <rect class="cls-7" x="0.413" y="0.413" width="7.43" height="4.028"/>
      </g>
      <path id="Path_25" data-name="Path 25" class="cls-3" d="M41.035,31.449V14.555H25.858l-5.626,6.79v21.6H41.195V41.165"/>
      <path id="Path_26" data-name="Path 26" class="cls-3" d="M25.858,14.555v7.007H19.852"/>
    </g>
  </g>
</svg>
