<?xml version="1.0" encoding="utf-8"?>
<!-- Generator: Adobe Illustrator 19.0.0, SVG Export Plug-In . SVG Version: 6.00 Build 0)  -->
<svg version="1.1" id="Layer_1" xmlns="http://www.w3.org/2000/svg" xmlns:xlink="http://www.w3.org/1999/xlink" x="0px" y="0px"
	 viewBox="0 0 17.7 23.8" style="enable-background:new 0 0 17.7 23.8;" xml:space="preserve">
<style type="text/css">
	.st0{fill:#fff;}
</style>
<path id="XMLID_72_" class="st0" d="M16.9,19.7l-4.1-5.1c2.6-2.4,2.9-6.4,0.6-9.1c-1.2-1.5-2.9-2.4-4.8-2.6C6.8,2.7,4.9,3.2,3.4,4.3
	c-3.1,2.3-3.7,6.7-1.3,9.6c1.4,1.7,3.5,2.7,5.7,2.7c1.3,0,2.6-0.3,3.7-1l4.1,5.1c0.2,0.2,0.4,0.3,0.7,0.3c0.2,0,0.4-0.1,0.5-0.2
	C17.2,20.5,17.2,20,16.9,19.7z M3.4,13c-1.9-2.3-1.5-5.7,1-7.5c1-0.8,2.2-1.1,3.4-1.1c1.7,0,3.3,0.7,4.4,2.1
	c1.8,2.2,1.5,5.2-0.5,7.1c-0.1,0.1-0.3,0.3-0.5,0.4c-0.2,0.1-0.3,0.2-0.5,0.3C8.3,15.7,5.1,15.2,3.4,13z"/>
</svg>
